<?xml version="1.0" encoding="UTF-8"?>
<svg version="1.1" xmlns="http://www.w3.org/2000/svg" width="273" height="152">
<path d="M0 0 C1.43472656 -0.02126953 1.43472656 -0.02126953 2.8984375 -0.04296875 C5.77314041 0.2000219 7.26451927 0.55216695 9.625 2.1875 C11.1953125 4.2265625 11.1953125 4.2265625 12.75 6.8125 C13.64912109 8.28203125 13.64912109 8.28203125 14.56640625 9.78125 C15.24574219 10.9053125 15.92507812 12.029375 16.625 13.1875 C17.87528834 15.20833265 19.13259084 17.22464213 20.39208984 19.23974609 C21.22951098 20.57968304 22.06463382 21.9210603 22.89697266 23.26416016 C26.0343312 28.3102167 29.30704848 33.25858166 32.625 38.1875 C32.66258423 36.51409546 32.66258423 36.51409546 32.70092773 34.80688477 C32.79483421 30.6825741 32.89509514 26.5584385 32.99731445 22.43432617 C33.040727 20.6466073 33.08239729 18.85884526 33.12231445 17.07104492 C33.1798646 14.50686609 33.24360203 11.94290588 33.30859375 9.37890625 C33.32530624 8.5747377 33.34201874 7.77056915 33.35923767 6.94203186 C33.51112829 1.30137171 33.51112829 1.30137171 34.625 0.1875 C36.60212807 0.08849801 38.58290038 0.05779227 40.5625 0.0625 C42.18478516 0.05863281 42.18478516 0.05863281 43.83984375 0.0546875 C46.625 0.1875 46.625 0.1875 48.625 1.1875 C48.625 21.9775 48.625 42.7675 48.625 64.1875 C43.015 64.1875 37.405 64.1875 31.625 64.1875 C25.97129134 57.20761277 25.97129134 57.20761277 24.5390625 54.06640625 C22.79366156 50.44402798 20.72221184 47.19082712 18.4375 43.875 C17.84582031 42.99199219 17.25414063 42.10898437 16.64453125 41.19921875 C15.97808594 40.20535156 15.31164062 39.21148437 14.625 38.1875 C12.645 35.2175 10.665 32.2475 8.625 29.1875 C8.295 40.7375 7.965 52.2875 7.625 64.1875 C2.675 64.1875 -2.275 64.1875 -7.375 64.1875 C-7.375 43.3975 -7.375 22.6075 -7.375 1.1875 C-4.801671 -0.0991645 -2.87276962 0.01925449 0 0 Z " fill="#ED937B" transform="translate(67.375,-0.1875)"/>
<path d="M0 0 C5.36475375 4.35056885 5.36475375 4.35056885 6.5546875 8.01953125 C6.60625 8.81101562 6.6578125 9.6025 6.7109375 10.41796875 C6.0509375 11.07796875 5.3909375 11.73796875 4.7109375 12.41796875 C3.7209375 12.41796875 2.7309375 12.41796875 1.7109375 12.41796875 C1.7109375 13.07796875 1.7109375 13.73796875 1.7109375 14.41796875 C-1.2890625 16.41796875 -1.2890625 16.41796875 -3.5390625 16.35546875 C-6.16750107 15.45941015 -7.46229828 14.59916728 -9.6015625 12.91796875 C-13.3373549 10.13840955 -16.60565699 8.96622294 -21.2890625 9.41796875 C-25.44612304 10.71071319 -27.86345557 12.93779683 -30.7265625 16.16796875 C-32.70967317 20.08290274 -32.67653272 24.23943607 -32.7265625 28.54296875 C-32.7419104 29.58275879 -32.7419104 29.58275879 -32.75756836 30.64355469 C-32.68087979 35.10758008 -31.80663834 37.77182443 -29.2890625 41.41796875 C-29.2890625 42.07796875 -29.2890625 42.73796875 -29.2890625 43.41796875 C-28.6496875 43.72734375 -28.0103125 44.03671875 -27.3515625 44.35546875 C-25.2890625 45.41796875 -25.2890625 45.41796875 -24.2890625 46.41796875 C-22.18990224 46.5965584 -20.08283562 46.68595352 -17.9765625 46.73046875 C-16.24986328 46.78654297 -16.24986328 46.78654297 -14.48828125 46.84375 C-11.25999027 46.66942085 -11.25999027 46.66942085 -8.99609375 44.7734375 C-6.82382365 42.02439749 -6.82382365 42.02439749 -5.2890625 36.41796875 C-9.5790625 36.41796875 -13.8690625 36.41796875 -18.2890625 36.41796875 C-18.2890625 32.12796875 -18.2890625 27.83796875 -18.2890625 23.41796875 C-13.80985653 23.39114716 -9.33080899 23.37121698 -4.8515625 23.35546875 C-3.57216797 23.34708984 -2.29277344 23.33871094 -0.97460938 23.33007812 C0.84780273 23.32524414 0.84780273 23.32524414 2.70703125 23.3203125 C3.83294678 23.31507568 4.9588623 23.30983887 6.11889648 23.30444336 C8.7109375 23.41796875 8.7109375 23.41796875 9.7109375 24.41796875 C10.70056778 35.12011332 10.00520317 44.96126649 2.9140625 53.609375 C-3.6765938 59.92322374 -10.39669697 61.55404491 -19.3515625 61.79296875 C-27.90811866 61.581355 -34.95591886 59.37948538 -41.2890625 53.41796875 C-43.31876511 50.90421783 -44.84809612 48.30517978 -46.2890625 45.41796875 C-46.61003906 44.78503906 -46.93101562 44.15210938 -47.26171875 43.5 C-50.98371705 34.54989246 -50.69126335 22.51792784 -47.7265625 13.35546875 C-44.47621597 5.85115992 -39.71279368 0.54762031 -32.28125 -2.890625 C-22.07280262 -6.43355674 -9.04064548 -6.24822768 0 0 Z " fill="#67B0AE" transform="translate(263.2890625,84.58203125)"/>
<path d="M0 0 C3.30829913 2.41435447 6.51359583 4.93473828 8.8359375 8.33984375 C8.8359375 9.65984375 8.8359375 10.97984375 8.8359375 12.33984375 C7.0078125 14.078125 7.0078125 14.078125 4.5859375 15.65234375 C3.79703125 16.18472656 3.008125 16.71710937 2.1953125 17.265625 C-0.1640625 18.33984375 -0.1640625 18.33984375 -2.33203125 18.1328125 C-4.83246298 17.05053608 -6.28223626 15.28237406 -8.1640625 13.33984375 C-11.0971983 12.36213182 -13.04585244 12.20565364 -16.1015625 12.21484375 C-16.95621094 12.21226563 -17.81085938 12.2096875 -18.69140625 12.20703125 C-20.99087102 12.33054121 -22.96046598 12.69563688 -25.1640625 13.33984375 C-25.1640625 13.99984375 -25.1640625 14.65984375 -25.1640625 15.33984375 C-25.6178125 15.77296875 -26.0715625 16.20609375 -26.5390625 16.65234375 C-29.95118814 20.19570499 -30.47601878 24.32373823 -30.5390625 29.08984375 C-30.41826418 34.8597399 -29.56930916 39.58857039 -26.1640625 44.33984375 C-22.91144212 47.3783676 -19.5097527 48.56169791 -15.1015625 48.83984375 C-10.62800812 48.27177335 -8.53290605 47.3076345 -5.1640625 44.33984375 C-3.99323734 41.76787985 -3.99323734 41.76787985 -3.1640625 39.33984375 C-4.55431641 39.24896484 -4.55431641 39.24896484 -5.97265625 39.15625 C-7.17019531 39.07246094 -8.36773437 38.98867188 -9.6015625 38.90234375 C-10.79652344 38.82113281 -11.99148437 38.73992188 -13.22265625 38.65625 C-16.1640625 38.33984375 -16.1640625 38.33984375 -17.1640625 37.33984375 C-17.1640625 33.37984375 -17.1640625 29.41984375 -17.1640625 25.33984375 C-7.9240625 25.33984375 1.3159375 25.33984375 10.8359375 25.33984375 C12.61973483 34.25883039 12.61960834 44.62898394 7.4765625 52.4765625 C1.87429296 58.83914005 -6.01140159 62.43207411 -14.30859375 63.65625 C-22.22250064 64.09828804 -29.90791575 61.39001022 -36.5390625 57.21484375 C-43.89947989 49.15343423 -47.18231197 40.97724607 -47.15625 30.0703125 C-46.59296255 19.55153162 -44.46398422 11.17260647 -37.1640625 3.33984375 C-27.68784655 -4.16216055 -10.83993921 -6.01980814 0 0 Z " fill="#EB856A" transform="translate(168.1640625,2.66015625)"/>
<path d="M0 0 C5.48114616 3.97284515 7.17463584 8.81106825 8.33984375 15.34375 C8.74393003 21.89299747 7.21632178 27.88183595 3.296875 33.19921875 C-3.08501525 39.00093716 -11.04435964 40.08016854 -19.453125 40.69921875 C-21.433125 40.36921875 -23.413125 40.03921875 -25.453125 39.69921875 C-25.453125 46.29921875 -25.453125 52.89921875 -25.453125 59.69921875 C-27.9075 59.71984375 -30.361875 59.74046875 -32.890625 59.76171875 C-33.66462646 59.77082275 -34.43862793 59.77992676 -35.23608398 59.78930664 C-36.97534217 59.79646788 -38.71457804 59.74946577 -40.453125 59.69921875 C-41.453125 58.69921875 -41.453125 58.69921875 -41.57337952 56.22520447 C-41.57115891 55.12600174 -41.56893829 54.02679901 -41.56665039 52.89428711 C-41.56657486 51.65307602 -41.56649933 50.41186493 -41.56642151 49.13304138 C-41.56131411 47.76838135 -41.5560981 46.40372173 -41.55078125 45.0390625 C-41.548917 43.65043692 -41.54749313 42.26181068 -41.54649353 40.8731842 C-41.54266887 37.2120076 -41.53283903 33.55087045 -41.52178955 29.88970947 C-41.51157432 26.15629612 -41.50699567 22.42287641 -41.50195312 18.68945312 C-41.49121671 11.35935698 -41.47414091 4.02929339 -41.453125 -3.30078125 C-29.15997807 -6.54180733 -11.3378804 -6.01196524 0 0 Z M-25.453125 9.69921875 C-25.453125 15.30921875 -25.453125 20.91921875 -25.453125 26.69921875 C-17.78668118 27.19466144 -17.78668118 27.19466144 -10.453125 25.69921875 C-8.54582837 23.54831102 -7.31227641 21.44513404 -6.453125 18.69921875 C-6.98244125 15.25866315 -7.65642746 13.49033196 -10.125 11.0390625 C-13.27198762 9.22796056 -15.59988655 9.4036216 -19.203125 9.51171875 C-21.265625 9.57359375 -23.328125 9.63546875 -25.453125 9.69921875 Z " fill="#EB7C5F" transform="translate(47.453125,4.30078125)"/>
<path d="M0 0 C7.858125 -0.1546875 7.858125 -0.1546875 15.875 -0.3125 C17.50679199 -0.35802002 19.13858398 -0.40354004 20.81982422 -0.45043945 C29.10963816 -0.52916272 36.12744331 -0.18970033 43 5 C47.10127376 9.30764207 49.94927449 14.23997191 50.03125 20.31640625 C49.57034701 27.86369273 47.55669882 33.38519439 42.25 38.8125 C33.59077529 44.64082432 25.09810084 44.64460567 15 45 C15.08378906 46.28777344 15.16757813 47.57554687 15.25390625 48.90234375 C15.35704621 50.58071227 15.45989584 52.25909864 15.5625 53.9375 C15.61857422 54.78763672 15.67464844 55.63777344 15.73242188 56.51367188 C15.80493164 57.72700195 15.80493164 57.72700195 15.87890625 58.96484375 C15.9260376 59.7137085 15.97316895 60.46257324 16.02172852 61.23413086 C16 63 16 63 15 64 C10.05 64 5.1 64 0 64 C0 42.88 0 21.76 0 0 Z M17 13 C17 13.66 17 14.32 17 15 C16.34 15 15.68 15 15 15 C14.97298592 17.10409639 14.95359777 19.20829178 14.9375 21.3125 C14.92589844 22.48425781 14.91429687 23.65601563 14.90234375 24.86328125 C14.85100102 28.03059195 14.85100102 28.03059195 16 31 C22.13386604 31.37554282 26.60291384 31.08404923 32 28 C34.25409246 25.46414599 34.12258411 23.19736852 33.9375 19.9375 C33.45132255 17.06851877 33.16967692 16.18098871 31.125 14 C26.4377526 12.50008083 21.87906888 12.76929096 17 13 Z " fill="#67B0AE" transform="translate(161,81)"/>
<path d="M0 0 C4.95 0 9.9 0 15 0 C15.9706221 2.91186631 16.11363068 4.70325755 16.08520508 7.72753906 C16.07801956 8.68573547 16.07083405 9.64393188 16.06343079 10.63116455 C16.04894394 11.6655365 16.03445709 12.69990845 16.01953125 13.765625 C16.00540695 14.83238464 15.99128265 15.89914429 15.97673035 16.99822998 C15.94359941 19.25782002 15.90724193 21.51736469 15.86791992 23.77685547 C15.81294108 27.22235784 15.78421691 30.66747137 15.75585938 34.11328125 C15.7203841 36.30992283 15.68332576 38.50653953 15.64453125 40.703125 C15.64016556 41.72940002 15.63579987 42.75567505 15.63130188 43.81304932 C15.4540008 51.31424296 14.14728685 55.93553649 8.625 61.3125 C1.43916529 65.93196517 -7.22034654 66.18178218 -15.4453125 64.5 C-19.96932486 62.98626202 -23.07983281 60.74146421 -26 57 C-26 53 -26 53 -24.64453125 51.296875 C-19.65451323 47.08355488 -19.65451323 47.08355488 -16.0625 46.625 C-15.0415625 46.810625 -15.0415625 46.810625 -14 47 C-13.34 48.32 -12.68 49.64 -12 51 C-10.54052295 50.93993922 -9.08220728 50.8511311 -7.625 50.75 C-6.81289062 50.70359375 -6.00078125 50.6571875 -5.1640625 50.609375 C-2.86938166 50.22217878 -2.86938166 50.22217878 -1.88467407 48.25421143 C-0.9166645 45.78765531 -0.7247138 43.96597079 -0.68115234 41.32324219 C-0.66128265 40.40258972 -0.64141296 39.48193726 -0.62094116 38.53338623 C-0.60361435 37.05506317 -0.60361435 37.05506317 -0.5859375 35.546875 C-0.56657135 34.53151672 -0.5472052 33.51615845 -0.5272522 32.47003174 C-0.46751901 29.23010635 -0.42109572 25.99014532 -0.375 22.75 C-0.33681449 20.55206792 -0.29776242 18.35415072 -0.2578125 16.15625 C-0.16182245 10.77095426 -0.07776795 5.38558846 0 0 Z " fill="#6DB2B0" transform="translate(136,81)"/>
<path d="M0 0 C3.96 0 7.92 0 12 0 C12 3.3 12 6.6 12 10 C13.629375 9.979375 15.25875 9.95875 16.9375 9.9375 C18.62499341 9.91613932 20.31391034 9.92794489 22 10 C23 11 23 11 23.09765625 13.28515625 C23.06510417 15.85677083 23.03255208 18.42838542 23 21 C19.7 21 16.4 21 13 21 C13.14013346 24.47948399 13.28682452 27.95847069 13.4375 31.4375 C13.47681641 32.43072266 13.51613281 33.42394531 13.55664062 34.44726562 C13.59853516 35.39150391 13.64042969 36.33574219 13.68359375 37.30859375 C13.72025146 38.18314209 13.75690918 39.05769043 13.79467773 39.95874023 C13.78181066 41.9927402 13.78181066 41.9927402 15 43 C17.33297433 43.04092937 19.66705225 43.04241723 22 43 C24.32590854 46.63423209 24.16265833 49.77088331 24 54 C20.6838381 55.1053873 18.11463365 55.16753642 14.625 55.1875 C13.50351562 55.20167969 12.38203125 55.21585938 11.2265625 55.23046875 C7.90265622 54.99304687 5.85653603 54.71293999 3 53 C-1.38031151 47.43196845 -0.32938817 40.34104011 -0.1875 33.625 C-0.17396484 32.41199219 -0.16042969 31.19898437 -0.14648438 29.94921875 C-0.11124582 26.96568794 -0.06197525 23.98307542 0 21 C-2.31 21 -4.62 21 -7 21 C-7 17.37 -7 13.74 -7 10 C-2 9 -2 9 0 10 C0 6.7 0 3.4 0 0 Z " fill="#657577" transform="translate(7,90)"/>
<path d="M0 0 C4.29 0 8.58 0 13 0 C13 20.13 13 40.26 13 61 C8.05 61 3.1 61 -2 61 C-4 56 -4 56 -4 54 C-4.99 53.67 -5.98 53.34 -7 53 C-7.625 50.125 -7.625 50.125 -8 47 C-7.34 46.34 -6.68 45.68 -6 45 C-6.495 43.515 -6.495 43.515 -7 42 C-3.535 41.505 -3.535 41.505 0 41 C0 27.47 0 13.94 0 0 Z " fill="#EA7B5D" transform="translate(102,2)"/>
<path d="M0 0 C4.66861981 1.60483806 9.09258167 3.97490194 13 7 C13 7.66 13 8.32 13 9 C13.99 9 14.98 9 16 9 C15.3997399 12.64965837 15.08276359 12.93751349 11.875 15.359375 C10.59098284 16.16851805 9.29892849 16.96501763 8 17.75 C7.34515625 18.16121094 6.6903125 18.57242188 6.015625 18.99609375 C1.18542359 22 1.18542359 22 0 22 C0 19.36 0 16.72 0 14 C-1.62974564 14.76074843 -3.25366648 15.53398433 -4.875 16.3125 C-5.77992187 16.74175781 -6.68484375 17.17101562 -7.6171875 17.61328125 C-10.26449476 18.9199388 -10.26449476 18.9199388 -12 22 C-12.66 22 -13.32 22 -14 22 C-15.26508099 28.32540496 -16.33459358 35.16446123 -13 41 C-10.98682781 42.80348078 -10.98682781 42.80348078 -9 44 C-10.5885342 48.28904235 -13.43127368 50.32345526 -17 53 C-19 53 -19 53 -20.875 51.4375 C-27.92968229 43.34536444 -28.11180692 35.70841517 -27.9375 25.25 C-25.75895147 17.69769844 -20.54831924 11.29217564 -14 7 C-9.73157587 4.84949624 -5.83719595 3.54651288 -1 4 C-0.67 2.68 -0.34 1.36 0 0 Z " fill="#627375" transform="translate(60,87)"/>
<path d="M0 0 C4.05534181 2.02767091 5.70165495 5.17766066 7.5 9.25 C10.62438522 19.28635062 8.83786894 26.98273454 4.5 36.25 C3.84 36.25 3.18 36.25 2.5 36.25 C2.231875 36.889375 1.96375 37.52875 1.6875 38.1875 C0.5 40.25 0.5 40.25 -2.5 41.25 C-2.5 41.91 -2.5 42.57 -2.5 43.25 C-10.77669827 47.12688481 -10.77669827 47.12688481 -14.4375 47.75 C-15.4584375 47.9975 -15.4584375 47.9975 -16.5 48.25 C-17.64649492 50.24068574 -17.64649492 50.24068574 -18.5 52.25 C-20.70105331 50.78263113 -22.90141486 49.31441341 -25.09765625 47.83984375 C-26.52840911 46.89298779 -27.97028526 45.96212842 -29.43359375 45.06640625 C-31.0625 44.0625 -31.0625 44.0625 -33.5 42.25 C-33.5 41.26 -33.5 40.27 -33.5 39.25 C-30.9453125 37.20703125 -30.9453125 37.20703125 -27.625 35.0625 C-25.98917969 33.98935547 -25.98917969 33.98935547 -24.3203125 32.89453125 C-21.5 31.25 -21.5 31.25 -19.5 31.25 C-19.5 30.59 -19.5 29.93 -19.5 29.25 C-18.84 29.25 -18.18 29.25 -17.5 29.25 C-17.5 31.56 -17.5 33.87 -17.5 36.25 C-11.78589636 34.12121629 -7.66302581 31.80997998 -4.375 26.3984375 C-2.28208403 21.25958131 -3.09585858 14.51553032 -4.5 9.25 C-5.82 8.92 -7.14 8.59 -8.5 8.25 C-8.17218843 5.19042532 -7.44321599 4.19163866 -5.25 1.9375 C-2.5 0.25 -2.5 0.25 0 0 Z " fill="#455B5D" transform="translate(79.5,99.75)"/>
<path d="M0 0 C5.36475375 4.35056885 5.36475375 4.35056885 6.5546875 8.01953125 C6.60625 8.81101562 6.6578125 9.6025 6.7109375 10.41796875 C6.0509375 11.07796875 5.3909375 11.73796875 4.7109375 12.41796875 C3.7209375 12.41796875 2.7309375 12.41796875 1.7109375 12.41796875 C1.7109375 13.07796875 1.7109375 13.73796875 1.7109375 14.41796875 C-1.2890625 16.41796875 -1.2890625 16.41796875 -3.5390625 16.35546875 C-6.16750107 15.45941015 -7.46229828 14.59916728 -9.6015625 12.91796875 C-13.3373549 10.13840955 -16.60565699 8.96622294 -21.2890625 9.41796875 C-25.47444715 10.71952129 -27.85800995 12.90751178 -30.6640625 16.23046875 C-33.59498088 21.91695142 -33.12748325 29.14061484 -33.2890625 35.41796875 C-33.6190625 35.41796875 -33.9490625 35.41796875 -34.2890625 35.41796875 C-34.6190625 29.47796875 -34.9490625 23.53796875 -35.2890625 17.41796875 C-34.6290625 17.41796875 -33.9690625 17.41796875 -33.2890625 17.41796875 C-33.2890625 16.75796875 -33.2890625 16.09796875 -33.2890625 15.41796875 C-34.6090625 15.08796875 -35.9290625 14.75796875 -37.2890625 14.41796875 C-36.9590625 13.42796875 -36.6290625 12.43796875 -36.2890625 11.41796875 C-36.6190625 10.75796875 -36.9490625 10.09796875 -37.2890625 9.41796875 C-40.89898629 10.07382064 -40.89898629 10.07382064 -44.2890625 11.41796875 C-44.25425781 12.165625 -44.21945313 12.91328125 -44.18359375 13.68359375 C-44.15652344 14.6684375 -44.12945312 15.65328125 -44.1015625 16.66796875 C-44.06675781 17.6425 -44.03195313 18.61703125 -43.99609375 19.62109375 C-44.2890625 22.41796875 -44.2890625 22.41796875 -45.7890625 24.35546875 C-47.93342497 27.30396714 -47.58430758 29.57646603 -47.4765625 33.16796875 C-47.44949219 34.3384375 -47.42242187 35.50890625 -47.39453125 36.71484375 C-47.35972656 37.606875 -47.32492188 38.49890625 -47.2890625 39.41796875 C-51.34564118 33.33310073 -50.03144442 23.15655077 -48.63671875 16.1328125 C-46.05450493 8.25318148 -41.58196646 1.89936141 -34.1640625 -2.01953125 C-23.87124213 -6.78156225 -9.40608929 -6.5007955 0 0 Z " fill="#73B6B3" transform="translate(263.2890625,84.58203125)"/>
<path d="M0 0 C0.98693848 -0.00064453 1.97387695 -0.00128906 2.99072266 -0.00195312 C9.63677552 0.04631001 15.98717965 0.4591845 22.4375 2.1875 C22.4375 2.5175 22.4375 2.8475 22.4375 3.1875 C10.8875 2.8575 -0.6625 2.5275 -12.5625 2.1875 C-12.5625 22.3175 -12.5625 42.4475 -12.5625 63.1875 C-8.2725 63.1875 -3.9825 63.1875 0.4375 63.1875 C0.4375 56.5875 0.4375 49.9875 0.4375 43.1875 C8.3575 42.1975 8.3575 42.1975 16.4375 41.1875 C16.1075 39.2075 15.7775 37.2275 15.4375 35.1875 C14.1175 34.8575 12.7975 34.5275 11.4375 34.1875 C11.7675 33.8575 12.0975 33.5275 12.4375 33.1875 C8.4775 32.8575 4.5175 32.5275 0.4375 32.1875 C0.4375 25.9175 0.4375 19.6475 0.4375 13.1875 C5.3875 13.1875 10.3375 13.1875 15.4375 13.1875 C15.7675 13.8475 16.0975 14.5075 16.4375 15.1875 C11.4875 14.8575 6.5375 14.5275 1.4375 14.1875 C1.4375 19.7975 1.4375 25.4075 1.4375 31.1875 C3.87125 31.105 6.305 31.0225 8.8125 30.9375 C9.57739746 30.92170898 10.34229492 30.90591797 11.13037109 30.88964844 C13.24754559 30.81984183 13.24754559 30.81984183 16.4375 30.1875 C18.57624808 27.56561875 18.84205773 24.54409079 19.375 21.25 C20.09750254 17.33692623 21.0467136 14.44766327 23.4375 11.1875 C24.7575 11.8475 26.0775 12.5075 27.4375 13.1875 C28.4275 12.1975 29.4175 11.2075 30.4375 10.1875 C33.70582726 15.45899559 36.07841847 19.39870765 34.99609375 25.796875 C33.57319403 31.81370812 32.04098442 36.00251416 27.4375 40.1875 C19.63274084 44.74027618 10.19377222 45.6468787 1.4375 44.1875 C1.4375 50.7875 1.4375 57.3875 1.4375 64.1875 C-1.016875 64.208125 -3.47125 64.22875 -6 64.25 C-6.77400146 64.259104 -7.54800293 64.26820801 -8.34545898 64.27758789 C-10.08471717 64.28474913 -11.82395304 64.23774702 -13.5625 64.1875 C-14.5625 63.1875 -14.5625 63.1875 -14.68275452 60.71348572 C-14.68053391 59.61428299 -14.67831329 58.51508026 -14.67602539 57.38256836 C-14.67594986 56.14135727 -14.67587433 54.90014618 -14.67579651 53.62132263 C-14.67068911 52.2566626 -14.6654731 50.89200298 -14.66015625 49.52734375 C-14.658292 48.13871817 -14.65686813 46.75009193 -14.65586853 45.36146545 C-14.65204387 41.70028885 -14.64221403 38.0391517 -14.63116455 34.37799072 C-14.62094932 30.64457737 -14.61637067 26.91115766 -14.61132812 23.17773438 C-14.60059171 15.84763823 -14.58351591 8.51757464 -14.5625 1.1875 C-9.69342982 -0.10017905 -5.0184523 -0.00332954 0 0 Z " fill="#EFA997" transform="translate(20.5625,-0.1875)"/>
<path d="M0 0 C0.12375 0.804375 0.2475 1.60875 0.375 2.4375 C0.58125 3.283125 0.7875 4.12875 1 5 C1.66 5.33 2.32 5.66 3 6 C3 6.66 3 7.32 3 8 C2.34 8 1.68 8 1 8 C1.33 8.99 1.66 9.98 2 11 C2.20359805 13.43469338 2.36487704 15.87304805 2.5 18.3125 C2.75848587 22.95139819 3.17003275 27.42826372 4 32 C4 32.33 4 32.66 4 33 C4.66 33 5.32 33 6 33 C6 33.99 6 34.98 6 36 C4.02 36 2.04 36 0 36 C-0.1546875 36.9590625 -0.1546875 36.9590625 -0.3125 37.9375 C-0.539375 38.618125 -0.76625 39.29875 -1 40 C-2.485 40.495 -2.485 40.495 -4 41 C-4.99 39.02 -5.98 37.04 -7 35 C-7.66 35 -8.32 35 -9 35 C-11.50828744 28.81886309 -13.17982784 22.69725804 -12 16 C-11.4946875 15.34773438 -10.989375 14.69546875 -10.46875 14.0234375 C-8.58185847 11.42394331 -8.83067023 10.08492961 -9.125 6.9375 C-9.2109375 4.2890625 -9.2109375 4.2890625 -9 2 C-6.00789345 -0.90899248 -3.89585991 -1.58720219 0 0 Z " fill="#5BABA8" transform="translate(227,94)"/>
<path d="M0 0 C4.56655365 1.17425665 6.45263066 3.3528979 8.92578125 7.15234375 C12.41559921 13.15483065 12.4091101 18.34529758 11 25 C9.05862124 30.78390044 6.22867062 34.82178844 1 38 C-2.875 37.8125 -2.875 37.8125 -6 37 C-6 36.34 -6 35.68 -6 35 C-7.98 35.495 -7.98 35.495 -10 36 C-10 34.35 -10 32.7 -10 31 C-9.01 31 -8.02 31 -7 31 C-6.67 30.01 -6.34 29.02 -6 28 C-6.99 27.34 -7.98 26.68 -9 26 C-8.01 25.34 -7.02 24.68 -6 24 C-5.68234851 21.99879564 -5.3695203 19.99269904 -5.2109375 17.97265625 C-5 16 -5 16 -4 13 C-2.67770811 15.64458379 -2.90322806 17.67761301 -2.9375 20.625 C-2.94652344 21.62789062 -2.95554688 22.63078125 -2.96484375 23.6640625 C-2.97644531 24.43492188 -2.98804688 25.20578125 -3 26 C-2.34 26.33 -1.68 26.66 -1 27 C0.14656064 24.78877592 1.11509221 22.670069 1.9375 20.3125 C2.288125 19.549375 2.63875 18.78625 3 18 C3.99 17.67 4.98 17.34 6 17 C6.66 18.32 7.32 19.64 8 21 C8.66 21 9.32 21 10 21 C10 19.02 10 17.04 10 15 C9.360625 14.773125 8.72125 14.54625 8.0625 14.3125 C6 13 6 13 5.375 10.6875 C5.25125 9.800625 5.1275 8.91375 5 8 C4.36562656 6.3207762 3.70710678 4.64991582 3 3 C2.34 3 1.68 3 1 3 C0.67 2.01 0.34 1.02 0 0 Z " fill="#71B5B3" transform="translate(199,84)"/>
<path d="M0 0 C4.05534181 2.02767091 5.70165495 5.17766066 7.5 9.25 C9.74519508 16.46215966 9.62492707 22.04885827 7.5 29.25 C6.49503148 26.23509443 6.39664697 24.20818308 6.4375 21.0625 C6.44652344 20.16144531 6.45554687 19.26039062 6.46484375 18.33203125 C6.47644531 17.64496094 6.48804687 16.95789063 6.5 16.25 C4.42446352 15.6965236 2.65634036 15.25 0.5 15.25 C0.17 15.25 -0.16 15.25 -0.5 15.25 C-0.5 17.56 -0.5 19.87 -0.5 22.25 C0.82 22.58 2.14 22.91 3.5 23.25 C3.0504955 24.56554985 2.59010284 25.87738358 2.125 27.1875 C1.86976562 27.91839844 1.61453125 28.64929688 1.3515625 29.40234375 C0.5 31.25 0.5 31.25 -1.5 32.25 C-3.49960012 32.289992 -5.50047242 32.29346799 -7.5 32.25 C-6.84 31.13625 -6.18 30.0225 -5.5 28.875 C-2.37911639 22.66631634 -2.73164315 15.88133817 -4.5 9.25 C-5.82 8.92 -7.14 8.59 -8.5 8.25 C-8.17218843 5.19042532 -7.44321599 4.19163866 -5.25 1.9375 C-2.5 0.25 -2.5 0.25 0 0 Z " fill="#7C8A8B" transform="translate(79.5,99.75)"/>
<path d="M0 0 C0.66 0 1.32 0 2 0 C2 2.31 2 4.62 2 7 C3.65 6.67 5.3 6.34 7 6 C7 6.99 7 7.98 7 9 C5.1128125 8.4121875 5.1128125 8.4121875 3.1875 7.8125 C0.04510854 6.95557317 0.04510854 6.95557317 -2.9375 7.9375 C-4.45294501 10.8792462 -4.69174806 13.73252939 -5 17 C-4.071875 16.7525 -4.071875 16.7525 -3.125 16.5 C1.25470729 15.79924683 5.57428989 15.92265749 10 16 C8 18 8 18 5.5 18.375 C4.675 18.58125 3.85 18.7875 3 19 C1.82266347 20.98969071 1.82266347 20.98969071 1 23 C-1.20105331 21.53263113 -3.40141486 20.06441341 -5.59765625 18.58984375 C-7.02840911 17.64298779 -8.47028526 16.71212842 -9.93359375 15.81640625 C-11.5625 14.8125 -11.5625 14.8125 -14 13 C-14 12.01 -14 11.02 -14 10 C-11.4453125 7.95703125 -11.4453125 7.95703125 -8.125 5.8125 C-7.03445312 5.09707031 -5.94390625 4.38164062 -4.8203125 3.64453125 C-2 2 -2 2 0 2 C0 1.34 0 0.68 0 0 Z " fill="#465A5D" transform="translate(60,129)"/>
<path d="M0 0 C4.47920597 -0.02682159 8.95825351 -0.04675177 13.4375 -0.0625 C14.71689453 -0.07087891 15.99628906 -0.07925781 17.31445312 -0.08789062 C19.13686523 -0.09272461 19.13686523 -0.09272461 20.99609375 -0.09765625 C22.12200928 -0.10289307 23.2479248 -0.10812988 24.40795898 -0.11352539 C27 0 27 0 28 1 C28.12682623 3.47163686 28.18520251 5.90290611 28.1875 8.375 C28.19974609 9.06078125 28.21199219 9.7465625 28.22460938 10.453125 C28.23552331 14.19296797 28.1266842 15.8099737 26 19 C26 13.39 26 7.78 26 2 C17.75 2 9.5 2 1 2 C1 5.3 1 8.6 1 12 C5.29 12 9.58 12 14 12 C13.67 14.31 13.34 16.62 13 19 C12 16 12 16 13 13 C8.71 13 4.42 13 0 13 C0 8.71 0 4.42 0 0 Z " fill="#CCE0DE" transform="translate(245,108)"/>
<path d="M0 0 C9.24 0 18.48 0 28 0 C28.91311237 4.56556184 29.02412379 7.96178907 28.75 12.5625 C28.68296875 13.86316406 28.6159375 15.16382813 28.546875 16.50390625 C28.00097907 19.99374095 27.38859129 21.47656888 25 24 C25.15339844 23.35675781 25.30679688 22.71351562 25.46484375 22.05078125 C26.15751829 18.10203079 26.35777431 14.18673016 26.5625 10.1875 C26.706875 7.485625 26.85125 4.78375 27 2 C18.75 1.67 10.5 1.34 2 1 C2 4.3 2 7.6 2 11 C6.29 11 10.58 11 15 11 C15 11.66 15 12.32 15 13 C12.68756208 13.02685412 10.3750373 13.04632841 8.0625 13.0625 C6.77472656 13.07410156 5.48695313 13.08570313 4.16015625 13.09765625 C1 13 1 13 0 12 C0 8.04 0 4.08 0 0 Z " fill="#EFCEC5" transform="translate(151,28)"/>
<path d="M0 0 C1.19625 0.556875 2.3925 1.11375 3.625 1.6875 C2.635 2.1825 2.635 2.1825 1.625 2.6875 C1.625 3.3475 1.625 4.0075 1.625 4.6875 C0.635 5.1825 0.635 5.1825 -0.375 5.6875 C0.285 7.0075 0.945 8.3275 1.625 9.6875 C0.26375 9.6565625 0.26375 9.6565625 -1.125 9.625 C-3.80172588 9.6764755 -5.84488052 9.9090017 -8.375 10.6875 C-9.30923645 7.67718256 -9.41949911 6.82099732 -8.375 3.6875 C-9.035 3.0275 -9.695 2.3675 -10.375 1.6875 C-6.45424204 -0.95901162 -4.36438076 -1.67741325 0 0 Z " fill="#475B5E" transform="translate(63.375,136.3125)"/>
<path d="M0 0 C1.98 1.32 3.96 2.64 6 4 C4.4114658 8.28904235 1.56872632 10.32345526 -2 13 C-4 13 -4 13 -6.0625 11.25 C-7.97162174 9.0329554 -8.59411886 7.841168 -9 5 C-6.625 3.4375 -6.625 3.4375 -4 2 C-3.34 2.33 -2.68 2.66 -2 3 C-0.84188612 1.94729537 -0.84188612 1.94729537 0 0 Z " fill="#475B5E" transform="translate(45,127)"/>
<path d="M0 0 C0.66 0.33 1.32 0.66 2 1 C1.67 1.33 1.34 1.66 1 2 C2.32 2.66 3.64 3.32 5 4 C4.01 4.495 4.01 4.495 3 5 C2.34227572 8.02934491 2.34227572 8.02934491 2 11 C3.65 10.34 5.3 9.68 7 9 C7 9.66 7 10.32 7 11 C5.37604003 11.50336767 3.75079459 12.00258976 2.125 12.5 C1.22007813 12.7784375 0.31515625 13.056875 -0.6171875 13.34375 C-3 14 -3 14 -5 14 C-6.625 12 -6.625 12 -8 10 C-7.01 9.67 -6.02 9.34 -5 9 C-5 8.34 -5 7.68 -5 7 C-4.34 7 -3.68 7 -3 7 C-3.33 6.01 -3.66 5.02 -4 4 C-2.68 2.68 -1.36 1.36 0 0 Z " fill="#53676B" transform="translate(70,132)"/>
<path d="M0 0 C4.58900349 1.21473622 6.90414423 3.73024996 9.9609375 7.1484375 C11 9 11 9 10.6640625 11.2265625 C10.44492187 11.81179687 10.22578125 12.39703125 10 13 C8.68 13.33 7.36 13.66 6 14 C6 14.66 6 15.32 6 16 C3 18 3 18 0.3125 17.625 C-0.8321875 17.315625 -0.8321875 17.315625 -2 17 C-1.401875 16.855625 -0.80375 16.71125 -0.1875 16.5625 C1.56150404 16.1127561 3.28677023 15.57107659 5 15 C3.6910428 11.87802522 3.6910428 11.87802522 1 10 C1.375 8.0625 1.375 8.0625 2 6 C2.66 5.67 3.32 5.34 4 5 C3.34 4.360625 2.68 3.72125 2 3.0625 C0 1 0 1 0 0 Z " fill="#91C3C0" transform="translate(259,83)"/>
<path d="M0 0 C3.51820741 0.60086239 5.50182456 1.93215628 8.1875 4.25 C8.88230469 4.83265625 9.57710937 5.4153125 10.29296875 6.015625 C12.29176291 8.33916603 12.65255491 9.99226639 13 13 C11.59447701 14.03612271 10.17508306 15.05344925 8.75 16.0625 C7.96109375 16.63097656 7.1721875 17.19945313 6.359375 17.78515625 C4 19 4 19 1.84375 18.84375 C-0.92886491 17.57492623 -2.25275461 15.43366322 -4 13 C-3.401875 13.33 -2.80375 13.66 -2.1875 14 C0.05386471 15.20787988 0.05386471 15.20787988 3 15 C4.32 15 5.64 15 7 15 C7 14.01 7 13.02 7 12 C7.66 12 8.32 12 9 12 C8.3045656 8.99615946 8.3045656 8.99615946 7 6 C4.96756452 5.03122943 4.96756452 5.03122943 3 5 C3 4.34 3 3.68 3 3 C2.34 3 1.68 3 1 3 C0.67 2.01 0.34 1.02 0 0 Z " fill="#EDBCAF" transform="translate(164,2)"/>
<path d="M0 0 C0.33 0.99 0.66 1.98 1 3 C0.03542166 4.35917857 -0.96854629 5.69084721 -2 7 C-2.12375 7.70125 -2.2475 8.4025 -2.375 9.125 C-2.58125 9.74375 -2.7875 10.3625 -3 11 C-5.5625 12.25 -5.5625 12.25 -8 13 C-7.125 7.125 -7.125 7.125 -6 6 C-7.32 5.34 -8.64 4.68 -10 4 C-6.88909677 1.23475269 -5.11713174 0.77745234 -1 1 C-0.67 0.67 -0.34 0.34 0 0 Z " fill="#455B5D" transform="translate(80,130)"/>
<path d="M0 0 C4.56655365 1.17425665 6.45263066 3.3528979 8.92578125 7.15234375 C12.48308595 13.27090784 11.99070889 18.22569327 11 25 C10.67 25 10.34 25 10 25 C10 21.7 10 18.4 10 15 C8.68 14.34 7.36 13.68 6 13 C5.375 10.6875 5.375 10.6875 5 8 C4.36562656 6.3207762 3.70710678 4.64991582 3 3 C2.34 3 1.68 3 1 3 C0.67 2.01 0.34 1.02 0 0 Z " fill="#B1D4D2" transform="translate(199,84)"/>
<path d="M0 0 C2.67844697 4.01767046 3.36290025 6.80298227 2.56640625 11.625 C0.77540946 19.0723087 -1.49737372 23.66491582 -8 28 C-8.99 27.67 -9.98 27.34 -11 27 C-10.34 26.67 -9.68 26.34 -9 26 C-7.86649466 23.98330173 -7.86649466 23.98330173 -7 22 C-6.01 22 -5.02 22 -4 22 C-3.67 20.35 -3.34 18.7 -3 17 C-2.34 17 -1.68 17 -1 17 C-0.83141902 14.9168207 -0.66520745 12.83344956 -0.5 10.75 C-0.4071875 9.58984375 -0.314375 8.4296875 -0.21875 7.234375 C-0.05595356 4.82731342 0 2.41256049 0 0 Z " fill="#EDB4A7" transform="translate(53,14)"/>
<path d="M0 0 C0.33 0 0.66 0 1 0 C1.25028811 1.58013217 1.47440946 3.16442306 1.6875 4.75 C1.81511719 5.63171875 1.94273437 6.5134375 2.07421875 7.421875 C2 10 2 10 0.53125 11.90625 C-1.64090345 14.87633737 -1.29628157 17.1239475 -1.1875 20.75 C-1.16042969 21.92046875 -1.13335937 23.0909375 -1.10546875 24.296875 C-1.07066406 25.18890625 -1.03585938 26.0809375 -1 27 C-3.52594205 23.21108692 -3.33125499 20.13866748 -3.3125 15.75 C-3.32861328 15.01136719 -3.34472656 14.27273437 -3.36132812 13.51171875 C-3.36594097 8.28075329 -2.34440155 4.67643159 0 0 Z " fill="#A4CCCB" transform="translate(217,97)"/>
<path d="M0 0 C-1 1 -2 2 -3 3 C-3.639375 3.680625 -4.27875 4.36125 -4.9375 5.0625 C-6.89600331 6.90230614 -8.54846779 7.94934334 -11 9 C-11 10.32 -11 11.64 -11 13 C-11.99 13.495 -11.99 13.495 -13 14 C-13.33 14.99 -13.66 15.98 -14 17 C-14.99 17.33 -15.98 17.66 -17 18 C-16.09310725 11.41619421 -12.13307651 5.90876849 -7.30859375 1.4296875 C-4.36919883 -0.67724721 -3.54067872 -1.18022624 0 0 Z " fill="#EDBEB3" transform="translate(140,3)"/>
<path d="M0 0 C0.99 0 1.98 0 3 0 C3.33 1.65 3.66 3.3 4 5 C3.34 5 2.68 5 2 5 C2 5.99 2 6.98 2 8 C-1 10 -1 10 -3.0625 9.875 C-5.57283417 8.7413007 -6.02691202 7.51381062 -7 5 C-5.625 3.5 -5.625 3.5 -4 2 C-3.34 2 -2.68 2 -2 2 C-2.33 3.32 -2.66 4.64 -3 6 C-2.01 6 -1.02 6 0 6 C0 4.02 0 2.04 0 0 Z " fill="#EB7B5D" transform="translate(169,9)"/>
<path d="M0 0 C2 0 2 0 3.5 1.375 C3.995 1.91125 4.49 2.4475 5 3 C5.66 3.66 6.32 4.32 7 5 C6.67 5.99 6.34 6.98 6 8 C6.99 8 7.98 8 9 8 C9.33 9.98 9.66 11.96 10 14 C11.32 14.33 12.64 14.66 14 15 C14 16.98 14 18.96 14 21 C11.88509533 18.98551305 10.1769285 16.95769574 8.5546875 14.53125 C8.11769531 13.87769531 7.68070312 13.22414063 7.23046875 12.55078125 C6.78316406 11.87402344 6.33585937 11.19726562 5.875 10.5 C5.41996094 9.82324219 4.96492188 9.14648438 4.49609375 8.44921875 C4.06167969 7.79566406 3.62726563 7.14210938 3.1796875 6.46875 C2.78507324 5.87513672 2.39045898 5.28152344 1.98388672 4.66992188 C1 3 1 3 0 0 Z " fill="#EEB3A7" transform="translate(85,41)"/>
<path d="M0 0 C1.32 0 2.64 0 4 0 C3.125 4.75 3.125 4.75 2 7 C1.34 7 0.68 7 0 7 C-0.66 8.32 -1.32 9.64 -2 11 C-2.99 11 -3.98 11 -5 11 C-5.33 9.68 -5.66 8.36 -6 7 C-5.38125 6.95875 -4.7625 6.9175 -4.125 6.875 C-3.42375 6.58625 -2.7225 6.2975 -2 6 C-0.6954344 3.00384054 -0.6954344 3.00384054 0 0 Z " fill="#717F7F" transform="translate(82,129)"/>
<path d="M0 0 C0.99 0 1.98 0 3 0 C3.66 0.66 4.32 1.32 5 2 C6.32 1.34 7.64 0.68 9 0 C9.66666667 1.33333333 10.33333333 2.66666667 11 4 C9.5625 6.625 9.5625 6.625 8 9 C7.67 8.01 7.34 7.02 7 6 C6.01 6.495 6.01 6.495 5 7 C4.01 7 3.02 7 2 7 C0.5393715 4.35261084 0 3.10551666 0 0 Z " fill="#475A5C" transform="translate(34,125)"/>
<path d="M0 0 C0.66 0 1.32 0 2 0 C2 2.31 2 4.62 2 7 C3.65 6.67 5.3 6.34 7 6 C7 6.99 7 7.98 7 9 C5.51988629 8.69201674 4.04092675 8.378482 2.5625 8.0625 C1.73878906 7.88847656 0.91507813 7.71445313 0.06640625 7.53515625 C-2 7 -2 7 -3 6 C-3.66 6.66 -4.32 7.32 -5 8 C-5.99 7.34 -6.98 6.68 -8 6 C-2.25 2 -2.25 2 0 2 C0 1.34 0 0.68 0 0 Z " fill="#919B9D" transform="translate(60,129)"/>
<path d="M0 0 C1.0828125 0.37125 1.0828125 0.37125 2.1875 0.75 C2.1875 1.74 2.1875 2.73 2.1875 3.75 C1.5275 3.09 0.8675 2.43 0.1875 1.75 C-1.61316242 4.6965385 -3.31413895 7.63801935 -4.8125 10.75 C-4.8125 10.09 -4.8125 9.43 -4.8125 8.75 C-6.1325 8.42 -7.4525 8.09 -8.8125 7.75 C-8.48468843 4.69042532 -7.75571599 3.69163866 -5.5625 1.4375 C-2.8125 -0.25 -2.8125 -0.25 0 0 Z " fill="#A3AAAB" transform="translate(79.8125,100.25)"/>
<path d="M0 0 C0.556875 0.350625 1.11375 0.70125 1.6875 1.0625 C4.64786802 2.2626492 5.87968038 1.67833035 9 1 C12.33490527 0.9026679 15.66450097 0.94170973 19 1 C17 3 17 3 14.5 3.375 C13.675 3.58125 12.85 3.7875 12 4 C10.82266347 5.98969071 10.82266347 5.98969071 10 8 C8.51714758 7.04737966 7.03881799 6.08771595 5.5625 5.125 C4.73878906 4.59132812 3.91507813 4.05765625 3.06640625 3.5078125 C1 2 1 2 0 0 Z " fill="#B0B7B8" transform="translate(51,144)"/>
<path d="M0 0 C1.32 0 2.64 0 4 0 C3.67 0.66 3.34 1.32 3 2 C3 4.33859436 3.60856242 6.70030423 4 9 C6.97 9 9.94 9 13 9 C13 9.33 13 9.66 13 10 C8.71 10 4.42 10 0 10 C0 6.7 0 3.4 0 0 Z " fill="#57A59E" transform="translate(246,110)"/>
<path d="M0 0 C-0.38520564 2.53910197 -0.70097943 3.72751123 -2.62890625 5.484375 C-3.26699219 5.90203125 -3.90507813 6.3196875 -4.5625 6.75 C-5.20316406 7.17796875 -5.84382813 7.6059375 -6.50390625 8.046875 C-7.24447266 8.51867187 -7.24447266 8.51867187 -8 9 C-8.66 8.67 -9.32 8.34 -10 8 C-6.56275862 1.24827586 -6.56275862 1.24827586 -3.875 0.0625 C-2.58388242 0.01946275 -1.29183467 0 0 0 Z " fill="#8F9798" transform="translate(76,96)"/>
<path d="M0 0 C4.62 0 9.24 0 14 0 C14 0.33 14 0.66 14 1 C10.37 1 6.74 1 3 1 C3 1.66 3 2.32 3 3 C2.34 3 1.68 3 1 3 C1.33 8.28 1.66 13.56 2 19 C1.34 19 0.68 19 0 19 C0 12.73 0 6.46 0 0 Z " fill="#CAE0DD" transform="translate(175,93)"/>
<path d="M0 0 C1.98 1.32 3.96 2.64 6 4 C4.4114658 8.28904235 1.56872632 10.32345526 -2 13 C-2.66 13 -3.32 13 -4 13 C-4 12.34 -4 11.68 -4 11 C-3.01 11 -2.02 11 -1 11 C-1 9.35 -1 7.7 -1 6 C0.32 6.33 1.64 6.66 3 7 C1.68 5.35 0.36 3.7 -1 2 C-0.67 1.34 -0.34 0.68 0 0 Z " fill="#A5ACAC" transform="translate(45,127)"/>
<path d="M0 0 C4.96582405 -0.48056362 8.47446339 -0.26276831 13 2 C13 2.33 13 2.66 13 3 C5.08 3.495 5.08 3.495 -3 4 C-2.01 2.68 -1.02 1.36 0 0 Z " fill="#EC7C5F" transform="translate(141,52)"/>
<path d="M0 0 C0.33 0.66 0.66 1.32 1 2 C1.99 2 2.98 2 4 2 C4 1.34 4 0.68 4 0 C5.32 0.66 6.64 1.32 8 2 C6.68 2.33 5.36 2.66 4 3 C4 3.66 4 4.32 4 5 C3.54625 5.433125 3.0925 5.86625 2.625 6.3125 C0.65690769 8.35628817 -0.06726871 10.34530324 -1 13 C-1.98120464 9.94736336 -1.98120464 8.05263664 -1 5 C-0.34 5 0.32 5 1 5 C0.67 3.35 0.34 1.7 0 0 Z " fill="#EDB7A8" transform="translate(139,13)"/>
<path d="M0 0 C1.98 0.99 1.98 0.99 4 2 C4.33 1.34 4.66 0.68 5 0 C5.66 0 6.32 0 7 0 C6.814375 1.0725 6.62875 2.145 6.4375 3.25 C6.0695432 6.40391546 5.95534657 8.09818492 7 11 C4.08156555 8.373409 2.05482685 5.33023661 0 2 C0 1.34 0 0.68 0 0 Z " fill="#EDB3A1" transform="translate(76,27)"/>
<path d="M0 0 C2 1 2 1 4 4 C4.8353125 5.2375 4.8353125 5.2375 5.6875 6.5 C6.120625 7.325 6.55375 8.15 7 9 C6.67 9.99 6.34 10.98 6 12 C2.92307943 9.23077149 1.22199993 6.97149976 0 3 C0 2.01 0 1.02 0 0 Z " fill="#9FC7C5" transform="translate(216,124)"/>
<path d="M0 0 C4 4.75 4 4.75 4 7 C5.32 7.66 6.64 8.32 8 9 C8 9.33 8 9.66 8 10 C6.02 10 4.04 10 2 10 C2.33 8.68 2.66 7.36 3 6 C2.34 6 1.68 6 1 6 C0.67 6.66 0.34 7.32 0 8 C0 5.33333333 0 2.66666667 0 0 Z " fill="#AACFCD" transform="translate(230,121)"/>
<path d="M0 0 C0.33 0.66 0.66 1.32 1 2 C1.66 2.33 2.32 2.66 3 3 C1.09598862 4.90401138 -0.33425686 5.93520439 -3.046875 6.19921875 C-5.03233273 6.1886578 -7.0169914 6.09915043 -9 6 C-5.25 4 -5.25 4 -3 4 C-2.67 3.01 -2.34 2.02 -2 1 C-1.34 0.67 -0.68 0.34 0 0 Z " fill="#E5866E" transform="translate(42,37)"/>
<path d="M0 0 C2.1519437 3.22791555 2.20086443 4.28400809 2 8 C1.01 8.495 1.01 8.495 0 9 C0 8.34 0 7.68 0 7 C-0.66 7 -1.32 7 -2 7 C-2 7.99 -2 8.98 -2 10 C-2.99 10.33 -3.98 10.66 -5 11 C-5 10.34 -5 9.68 -5 9 C-4.34 9 -3.68 9 -3 9 C-2.87625 8.443125 -2.7525 7.88625 -2.625 7.3125 C-1.94023145 4.77885636 -1.00866237 2.42078968 0 0 Z " fill="#EA7A5F" transform="translate(129,11)"/>
<path d="M0 0 C0.99 0.33 1.98 0.66 3 1 C2 2 1 3 0 4 C-0.680625 4.721875 -1.36125 5.44375 -2.0625 6.1875 C-4 8 -4 8 -6 8 C-6 6.68 -6 5.36 -6 4 C-3.1875 1.6875 -3.1875 1.6875 0 0 Z " fill="#ECB0A1" transform="translate(137,2)"/>
<path d="M0 0 C0.33 0.99 0.66 1.98 1 3 C-0.40445835 5.2636564 -2.1967913 7.0208685 -4 9 C-4.66 8.67 -5.32 8.34 -6 8 C-6 6.68 -6 5.36 -6 4 C-5.01 4 -4.02 4 -3 4 C-2.67 3.01 -2.34 2.02 -2 1 C-1.67 1.33 -1.34 1.66 -1 2 C-0.67 1.34 -0.34 0.68 0 0 Z " fill="#9FCBC6" transform="translate(149,133)"/>
<path d="M0 0 C0.66 0.33 1.32 0.66 2 1 C1.67 1.33 1.34 1.66 1 2 C0.63239269 4.32817964 0.29758419 6.6618385 0 9 C-1.9375 8.25 -1.9375 8.25 -4 7 C-4.75 4.875 -4.75 4.875 -5 3 C-2.625 1.4375 -2.625 1.4375 0 0 Z " fill="#717F81" transform="translate(41,129)"/>
<path d="M0 0 C0.33 0.66 0.66 1.32 1 2 C-0.98 2.66 -2.96 3.32 -5 4 C-5 3.01 -5 2.02 -5 1 C-7.97 1 -10.94 1 -14 1 C-14 0.67 -14 0.34 -14 0 C-12.41773035 -0.19627391 -10.83410729 -0.38165538 -9.25 -0.5625 C-8.36828125 -0.66691406 -7.4865625 -0.77132812 -6.578125 -0.87890625 C-4.08536537 -0.99599041 -2.32874167 -0.87590058 0 0 Z " fill="#89C0BB" transform="translate(190,112)"/>
<path d="M0 0 C0.99 0 1.98 0 3 0 C2.67 2.31 2.34 4.62 2 7 C0.68 7.33 -0.64 7.66 -2 8 C-1.34 5.36 -0.68 2.72 0 0 Z " fill="#EB9685" transform="translate(166,39)"/>
<path d="M0 0 C4.13260117 1.79678312 6.29142204 2.79426965 8 7 C9.5412312 8.70921589 9.5412312 8.70921589 11 10 C7.10351684 9.42274324 4.8302055 7.68124732 2 5 C0.6875 2.25 0.6875 2.25 0 0 Z " fill="#EFC6BB" transform="translate(127,52)"/>
<path d="M0 0 C0.66 0.33 1.32 0.66 2 1 C2 1.99 2 2.98 2 4 C1.34 4.66 0.68 5.32 0 6 C0.33 6.66 0.66 7.32 1 8 C-1.475 7.01 -1.475 7.01 -4 6 C-4 5.01 -4 4.02 -4 3 C-2 1.3125 -2 1.3125 0 0 Z " fill="#ABB2B3" transform="translate(50,136)"/>
<path d="M0 0 C2.6875 -0.25 2.6875 -0.25 5 0 C5.66 1.32 6.32 2.64 7 4 C3.7 4 0.4 4 -3 4 C-2.01 2.68 -1.02 1.36 0 0 Z " fill="#B5D2CF" transform="translate(117,128)"/>
<path d="M0 0 C0.99 0.66 1.98 1.32 3 2 C3.1875 4.625 3.1875 4.625 3 7 C1.35 6.67 -0.3 6.34 -2 6 C-1.49396008 3.83125748 -1.00016187 2.00032373 0 0 Z " fill="#445A59" transform="translate(79,101)"/>
<path d="M0 0 C0.99 0 1.98 0 3 0 C2.814375 0.5775 2.62875 1.155 2.4375 1.75 C1.95976454 4.20692525 2.24270636 5.64397534 3 8 C2.01 8.495 2.01 8.495 1 9 C1 8.34 1 7.68 1 7 C0.34 7 -0.32 7 -1 7 C-1.33 5.35 -1.66 3.7 -2 2 C-1.34 2 -0.68 2 0 2 C0 1.34 0 0.68 0 0 Z " fill="#E97A59" transform="translate(78,21)"/>
<path d="M0 0 C4.24822374 0.47202486 6.19989709 2.96655518 9 6 C6.03 5.505 6.03 5.505 3 5 C3 4.34 3 3.68 3 3 C2.34 3 1.68 3 1 3 C0.67 2.01 0.34 1.02 0 0 Z " fill="#EDBEB3" transform="translate(164,2)"/>
<path d="M0 0 C1.32 0 2.64 0 4 0 C3.125 4.75 3.125 4.75 2 7 C1.34 6.67 0.68 6.34 0 6 C0.33 5.34 0.66 4.68 1 4 C0.34 4 -0.32 4 -1 4 C-0.67 2.68 -0.34 1.36 0 0 Z " fill="#88979A" transform="translate(82,129)"/>
<path d="M0 0 C0.66 0.33 1.32 0.66 2 1 C1.375 3.375 1.375 3.375 0 6 C-3.125 7.3125 -3.125 7.3125 -6 8 C-4.55746343 4.63408134 -2.66735273 2.48952921 0 0 Z " fill="#ACB2B1" transform="translate(43,96)"/>
<path d="M0 0 C0.99 0.33 1.98 0.66 3 1 C2.01 2.32 1.02 3.64 0 5 C-1.65 4.67 -3.3 4.34 -5 4 C-3.36587557 2.29159719 -2.13093906 1.06546953 0 0 Z " fill="#9EA6A7" transform="translate(50,92)"/>
<path d="M0 0 C0 0.99 0 1.98 0 3 C-2.3125 5.25 -2.3125 5.25 -5 7 C-5.99 6.67 -6.98 6.34 -8 6 C-7.34 5.67 -6.68 5.34 -6 5 C-4.86649466 2.98330173 -4.86649466 2.98330173 -4 1 C-3.01 1 -2.02 1 -1 1 C-0.67 0.67 -0.34 0.34 0 0 Z " fill="#F0C7BD" transform="translate(50,35)"/>
<path d="M0 0 C0 0.99 0 1.98 0 3 C-2.5 5.1875 -2.5 5.1875 -5 7 C-5.66 5.68 -6.32 4.36 -7 3 C-6.21625 2.87625 -5.4325 2.7525 -4.625 2.625 C-1.85942178 2.20882007 -1.85942178 2.20882007 0 0 Z " fill="#B0D6D2" transform="translate(267,134)"/>
<path d="M0 0 C2.5 2.3125 2.5 2.3125 5 5 C5 5.99 5 6.98 5 8 C3.68 7.67 2.36 7.34 1 7 C0.67 4.69 0.34 2.38 0 0 Z " fill="#EEB9AD" transform="translate(91,26)"/>
<path d="M0 0 C0.33 0.66 0.66 1.32 1 2 C-2.37097383 3.49821059 -4.20442119 4 -8 4 C-7.67 3.01 -7.34 2.02 -7 1 C-3.535 0.505 -3.535 0.505 0 0 Z " fill="#919C9C" transform="translate(76,141)"/>
<path d="M0 0 C0.33 0.66 0.66 1.32 1 2 C2.32 2 3.64 2 5 2 C4.34 3.65 3.68 5.3 3 7 C2.01 7 1.02 7 0 7 C0.66 5.68 1.32 4.36 2 3 C1.34 3 0.68 3 0 3 C0 2.01 0 1.02 0 0 Z " fill="#F1BEB0" transform="translate(171,50)"/>
<path d="M0 0 C2.475 0.99 2.475 0.99 5 2 C5 4.31 5 6.62 5 9 C4.731875 8.443125 4.46375 7.88625 4.1875 7.3125 C2.89877353 4.80287477 1.47073522 2.40665764 0 0 Z " fill="#E9B6A8" transform="translate(36,13)"/>
<path d="M0 0 C1.98 0 3.96 0 6 0 C6 0.66 6 1.32 6 2 C3.625 3.0625 3.625 3.0625 1 4 C0.34 3.67 -0.32 3.34 -1 3 C-0.67 2.01 -0.34 1.02 0 0 Z " fill="#60ABA5" transform="translate(258,96)"/>
<path d="" fill="#FFFFFF" transform="translate(0,0)"/>
<path d="" fill="#FFFFFF" transform="translate(0,0)"/>
<path d="" fill="#FFFFFF" transform="translate(0,0)"/>
<path d="" fill="#FFFFFF" transform="translate(0,0)"/>
<path d="" fill="#FFFFFF" transform="translate(0,0)"/>
<path d="" fill="#FFFFFF" transform="translate(0,0)"/>
<path d="" fill="#FFFFFF" transform="translate(0,0)"/>
<path d="" fill="#FFFFFF" transform="translate(0,0)"/>
<path d="" fill="#FFFFFF" transform="translate(0,0)"/>
</svg>
