<svg width="512" height="512" viewBox="0 0 512 512" fill="none" xmlns="http://www.w3.org/2000/svg">
  <rect width="512" height="512" rx="128" fill="url(#gradient)" />
  <path d="M156 256C156 238.327 170.327 224 188 224H324C341.673 224 356 238.327 356 256C356 273.673 341.673 288 324 288H188C170.327 288 156 273.673 156 256Z" fill="white"/>
  <path d="M256 156C273.673 156 288 170.327 288 188V324C288 341.673 273.673 356 256 356C238.327 356 224 341.673 224 324V188C224 170.327 238.327 156 256 156Z" fill="white"/>
  <defs>
    <linearGradient id="gradient" x1="0" y1="0" x2="512" y2="512" gradientUnits="userSpaceOnUse">
      <stop offset="0%" stopColor="#3B82F6"/>
      <stop offset="100%" stopColor="#14B8A6"/>
    </linearGradient>
  </defs>
</svg>