<?xml version="1.0" encoding="UTF-8"?>
<svg version="1.1" xmlns="http://www.w3.org/2000/svg" width="452" height="376">
<path d="M0 0 C3.50413963 2.83919747 6.78205366 5.84174575 10 9 C10.65097656 9.62648438 11.30195313 10.25296875 11.97265625 10.8984375 C20.78515313 20.07892875 25 32.43832555 25 45 C12.46 45 -0.08 45 -13 45 C-15.31 40.71 -17.62 36.42 -20 32 C-26.43309111 25.20951494 -34.89834944 21.0196382 -44.34375 20.76171875 C-57.89400533 20.46921032 -69.63633345 21.30929881 -80 31 C-91.67071187 42.32889186 -94.96627087 56.29566415 -95.35400391 72.1418457 C-95.47716746 88.907842 -93.49375034 104.88534497 -81.8125 117.9375 C-72.42728813 126.41582623 -60.44480064 129.52396118 -48.109375 129.2421875 C-37.38248677 128.40667611 -27.76843819 124.88836414 -20.12109375 117.08203125 C-15.2516537 110.96777194 -11.80177997 103.81735469 -11 96 C-12.485 96.495 -12.485 96.495 -14 97 C-16.65894107 97.08494728 -19.29085377 97.11594796 -21.94921875 97.09765625 C-22.72183548 97.0962413 -23.49445221 97.09482635 -24.29048157 97.09336853 C-26.75619389 97.08777466 -29.22181515 97.07522333 -31.6875 97.0625 C-33.36002473 97.05748421 -35.03255088 97.05292144 -36.70507812 97.04882812 C-40.80342046 97.03780724 -44.90169479 97.02054684 -49 97 C-51.34590451 87.61638196 -50 77.67241209 -50 68 C-24.92 68 0.16 68 26 68 C26 97.12368351 25.77235936 119.51848195 5.5625 140.875 C-13.01554168 158.13212587 -35.73917579 162.80250509 -60.30029297 162.13623047 C-82.60538383 161.01068872 -101.24646201 150.40644949 -116.2890625 134.59375 C-132.23575538 116.12267717 -136.10470526 90.03104426 -134.72851562 66.42480469 C-132.89689487 42.752494 -124.28216369 20.79479448 -106 5 C-77.07294622 -18.41713877 -30.83987899 -22.12861447 0 0 Z " fill="#E4765E" transform="translate(418,14)"/>
<path d="M0 0 C11.88 0 23.76 0 36 0 C45.50381958 10.97132114 45.50381958 10.97132114 47.40625 15.92578125 C49.74792669 21.56154619 52.62714746 26.43174361 56 31.5 C56.98190503 33.04692189 57.95973108 34.59643997 58.93359375 36.1484375 C72.69993169 57.94327145 86.69822226 79.54733339 101 101 C101.33 68 101.66 35 102 1 C113.55 1 125.1 1 137 1 C137 54.13 137 107.26 137 162 C124.79 162 112.58 162 100 162 C88.49080882 144.73621324 88.49080882 144.73621324 83.125 136.25 C82.53332031 135.31736328 81.94164062 134.38472656 81.33203125 133.42382812 C77.06131688 126.68853662 72.80491607 119.94418336 68.54833984 113.19995117 C57.64291579 95.92548422 46.71744457 78.73920653 35 62 C35 94.67 35 127.34 35 161 C23.68167083 163.82958229 11.66060133 161.37614843 0 161 C0 107.87 0 54.74 0 0 Z " fill="#4CA6A4" transform="translate(141,212)"/>
<path d="M0 0 C3.64950226 2.74431076 6.85116321 5.69955255 10 9 C10.98226562 9.97066406 10.98226562 9.97066406 11.984375 10.9609375 C19.84394465 19.1899741 24.06528097 30.21588451 24.125 41.5625 C24.08375 42.696875 24.0425 43.83125 24 45 C16.0800587 45.87495179 8.2765687 46.12590042 0.3125 46.0625 C-1.33008789 46.05573242 -1.33008789 46.05573242 -3.00585938 46.04882812 C-5.67063309 46.03719156 -8.33528517 46.02084564 -11 46 C-11.27972656 45.2265625 -11.55945313 44.453125 -11.84765625 43.65625 C-15.4907227 34.19130565 -19.15152264 27.57025895 -28.5 23.0625 C-32.68798742 21.36219993 -36.45566114 20.25246327 -41 20 C-41.68449219 19.96132812 -42.36898437 19.92265625 -43.07421875 19.8828125 C-55.56897483 19.49030707 -65.7496917 23.07514293 -74.890625 31.6171875 C-86.92505552 45.2116368 -86.83467251 64.16352509 -86.16845703 81.25097656 C-85.40828008 93.65618308 -81.55544465 106.50396334 -72 115 C-60.71782659 123.08804816 -49.49635908 124.17794973 -36 123 C-31.96417525 122.18449465 -28.61188046 120.96003069 -25 119 C-24.26523437 118.61070312 -23.53046875 118.22140625 -22.7734375 117.8203125 C-14.02910617 112.28551102 -11.38474098 102.53896391 -9 93 C-20.55 93 -32.1 93 -44 93 C-44 84.09 -44 75.18 -44 66 C-37.54863346 65.83219735 -31.09747693 65.66929796 -24.64575195 65.51782227 C-22.46111504 65.46517848 -20.2765389 65.40993406 -18.09204102 65.35180664 C-3.67012881 64.97027457 10.59975824 65.08972172 25 66 C25.62627198 90.66548111 25.8041573 113.53882212 8 133 C-7.06113645 148.2389239 -25.43403255 154.81241841 -46.6875 155.3125 C-68.65816009 155.18344673 -86.9892272 148.39163588 -103.1875 133.375 C-120.17443533 115.76790671 -124.51479902 91.62750073 -124.42382812 68.0871582 C-124.12928821 53.86466158 -121.36993251 40.81184167 -115 28 C-114.31550781 26.56140625 -114.31550781 26.56140625 -113.6171875 25.09375 C-104.75593717 8.17276947 -89.63555082 -2.92382802 -71.890625 -9.2109375 C-47.83200494 -15.77829054 -21.22096964 -13.5654542 0 0 Z " fill="#4AA4A1" transform="translate(423,221)"/>
<path d="M0 0 C84.25519941 0 84.25519941 0 96.5 6.75 C97.16306152 7.09925537 97.82612305 7.44851074 98.50927734 7.80834961 C103.61856002 10.58693882 108.01151842 13.73846833 112 18 C112.53753906 18.55300781 113.07507813 19.10601563 113.62890625 19.67578125 C117.91072343 24.3439278 123 30.46955845 123 37 C123.66 37.33 124.32 37.66 125 38 C127.52470521 50.10563782 127.79151015 65.52941509 123 77 C122.5978125 77.9796875 122.195625 78.959375 121.78125 79.96875 C115.9899922 92.70951716 106.89816474 101.778156 93.99609375 107.28125 C91.34664797 108.26905935 88.7068755 109.18398891 86 110 C85.43853271 110.17345947 84.87706543 110.34691895 84.29858398 110.52563477 C81.1297602 111.17959383 78.04628541 111.22416876 74.8125 111.31640625 C74.11415039 111.33718735 73.41580078 111.35796844 72.69628906 111.37937927 C71.21701852 111.42254869 69.73768491 111.46360201 68.25830078 111.50268555 C66.03532123 111.56156446 63.81260667 111.62684956 61.58984375 111.69335938 C53.38623597 111.92813338 45.21208303 112 37 112 C37 130.81 37 149.62 37 169 C24.79 169 12.58 169 0 169 C0 113.23 0 57.46 0 0 Z M37 32 C36.90680551 33.5348297 36.882542 35.07392082 36.88647461 36.61157227 C36.88655014 37.59251358 36.88662567 38.5734549 36.88670349 39.5841217 C36.89186478 40.6507756 36.89702606 41.7174295 36.90234375 42.81640625 C36.9037587 43.9025975 36.90517365 44.98878876 36.90663147 46.1078949 C36.91224952 49.59279075 36.92480508 53.07762342 36.9375 56.5625 C36.94251267 58.91861887 36.94707598 61.27473874 36.95117188 63.63085938 C36.96222481 69.42059464 36.97898049 75.21029281 37 81 C41.37409304 81.12489723 45.7472039 81.21493781 50.12255859 81.2746582 C51.60646679 81.29958838 53.09025495 81.33354625 54.57373047 81.37719727 C65.05078098 81.67744989 73.08053254 80.92340322 81.4375 73.97265625 C86.95864378 67.22305798 88.55582642 61.86006427 88.37109375 53.1015625 C87.56066154 46.32805538 84.6011861 40.93916202 79.375 36.5625 C70.45698314 30.8604599 60.67402794 30.56422272 50.375 30.75 C49.19292969 30.75515625 48.01085937 30.7603125 46.79296875 30.765625 C41.53586128 30.31368008 41.53586128 30.31368008 37 32 Z " fill="#E2755D" transform="translate(141,4)"/>
<path d="M0 0 C89.59131403 0 89.59131403 0 105.26171875 15.06640625 C117.22776647 28.37695372 119.67759005 42.41695607 119.13183594 59.69580078 C118.33055942 73.70033375 111.10857828 85.61346302 101 95 C82.5185987 110.04914106 59.44630363 108 37 108 C36.67 125.82 36.34 143.64 36 162 C24.12 162 12.24 162 0 162 C0 108.54 0 55.08 0 0 Z M36 30 C36 45.84 36 61.68 36 78 C39.939375 78.061875 43.87875 78.12375 47.9375 78.1875 C49.16073975 78.21481201 50.38397949 78.24212402 51.64428711 78.27026367 C60.88961755 78.34004825 68.6783009 76.99048108 76 71 C80.76471839 65.35723052 82.16126803 61.16316853 82.25 53.6875 C82.28867188 51.74423828 82.28867188 51.74423828 82.328125 49.76171875 C81.76025158 43.25145557 78.92081884 39.15535813 74 35 C62.03384416 27.63240818 50.60841744 30 36 30 Z " fill="#4AA4A1" transform="translate(3,212)"/>
<path d="M0 0 C12.21 0 24.42 0 37 0 C37.06793655 15.79542288 37.12310886 31.59072844 37.15543652 47.38625526 C37.17085127 54.72174974 37.19183649 62.05714644 37.22631836 69.39257812 C37.25638711 75.79228867 37.27561409 82.19192835 37.28226548 88.59170759 C37.28614844 91.97478799 37.29515862 95.35766577 37.31719017 98.74068069 C37.56295796 141.18145913 37.56295796 141.18145913 22.3828125 156.8125 C9.68890222 168.46592583 -6.47438643 171.56472239 -23.32421875 171.24609375 C-38.06011897 170.25952445 -51.66314944 166.7562949 -62.03125 155.54296875 C-69.28434651 146.17438575 -73.81320062 133.92694237 -73 122 C-69.4937557 120.8312519 -66.3522134 120.87485733 -62.70703125 120.90234375 C-61.64798836 120.90446617 -61.64798836 120.90446617 -60.56755066 120.90663147 C-58.31582374 120.91222236 -56.06419679 120.92477312 -53.8125 120.9375 C-52.28450665 120.94251618 -50.75651173 120.94707888 -49.22851562 120.95117188 C-45.48563865 120.9621888 -41.74283627 120.97944713 -38 121 C-37.74605469 121.68634521 -37.49210937 122.37269043 -37.23046875 123.07983398 C-36.88628906 123.98032471 -36.54210938 124.88081543 -36.1875 125.80859375 C-35.85105469 126.70118896 -35.51460937 127.59378418 -35.16796875 128.51342773 C-33.41029537 132.25546439 -31.45697415 133.76737086 -28 136 C-22.33854177 137.78722205 -16.80905062 137.56347478 -11.1875 135.8125 C-6.76522401 133.29787248 -4.74400223 130.80126856 -2.8125 126.125 C-0.94214531 118.9313281 -0.83485363 111.95283475 -0.79467773 104.55688477 C-0.78477814 103.42444839 -0.77487854 102.29201202 -0.76467896 101.1252594 C-0.73319413 97.39732932 -0.70835808 93.66938652 -0.68359375 89.94140625 C-0.66301298 87.35065894 -0.64201622 84.7599149 -0.62062073 82.16917419 C-0.5711426 76.05663289 -0.52584745 69.94407382 -0.48259836 63.83148569 C-0.43310039 56.86891078 -0.37822911 49.90638142 -0.32291877 42.94385064 C-0.20932354 28.62927518 -0.10314538 14.31465448 0 0 Z " fill="#E1755D" transform="translate(75,5)"/>
<path d="M0 0 C11.55 0 23.1 0 35 0 C35 53.13 35 106.26 35 161 C22.79 161 10.58 161 -2 161 C-2 160.01 -2 159.02 -2 158 C-0.68 158.33 0.64 158.66 2 159 C16.85 158.505 16.85 158.505 32 158 C32.33 106.52 32.66 55.04 33 2 C22.77 2 12.54 2 2 2 C2 35.33 2 68.66 2 103 C0.68 103 -0.64 103 -2 103 C-2.33 101.68 -2.66 100.36 -3 99 C-2.34 99.33 -1.68 99.66 -1 100 C-0.67 67 -0.34 34 0 0 Z " fill="#3C8784" transform="translate(243,213)"/>
<path d="M0 0 C0.33 0 0.66 0 1 0 C1 51.81 1 103.62 1 157 C11.56 157 22.12 157 33 157 C33 124.66 33 92.32 33 59 C33.33 59 33.66 59 34 59 C35.21310263 63.73820922 35.13379425 68.34256714 35.11352539 73.1965332 C35.11367142 74.11409897 35.11381744 75.03166473 35.1139679 75.97703552 C35.11327275 79.00164171 35.10549897 82.02618586 35.09765625 85.05078125 C35.09579066 87.15113796 35.09436742 89.25149511 35.09336853 91.35185242 C35.08955449 96.8739645 35.07973368 102.39605019 35.06866455 107.91815186 C35.05842652 113.55545698 35.05386578 119.19276638 35.04882812 124.83007812 C35.03811043 135.88673033 35.02104735 146.94336297 35 158 C23.68167083 160.82958229 11.66060133 158.37614843 0 158 C0 105.86 0 53.72 0 0 Z " fill="#2F7875" transform="translate(141,215)"/>
<path d="M0 0 C0.82555811 32.51428851 0.82555811 32.51428851 -4 46 C-5.29514542 42.35632423 -4.63911443 40.05000184 -3.625 36.375 C-1.43609125 25.09370104 -1.44166167 13.48320351 -1 2 C-22.78 2 -44.56 2 -67 2 C-67 9.59 -67 17.18 -67 25 C-56.11 25 -45.22 25 -34 25 C-34 25.66 -34 26.32 -34 27 C-45.55 27 -57.1 27 -69 27 C-69 18.09 -69 9.18 -69 0 C-62.70935912 -0.16799164 -56.4189464 -0.33092402 -50.12792969 -0.48217773 C-47.99862794 -0.53475506 -45.86938976 -0.58998981 -43.74023438 -0.64819336 C-29.1043882 -1.04590657 -14.61660972 -0.86902224 0 0 Z " fill="#418683" transform="translate(448,287)"/>
<path d="M0 0 C25.08 0 50.16 0 76 0 C76 9.57 76 19.14 76 29 C75.34 29.33 74.68 29.66 74 30 C74 20.43 74 10.86 74 1 C50.24 1 26.48 1 2 1 C2 9.58 2 18.16 2 27 C4.73152344 26.98839844 7.46304687 26.97679688 10.27734375 26.96484375 C12.91170129 26.95705358 15.54605757 26.95097659 18.18041992 26.94506836 C20.01668875 26.94002769 21.85295354 26.93319523 23.68920898 26.92456055 C26.32276401 26.91248328 28.95626616 26.90676919 31.58984375 26.90234375 C32.41588608 26.89718246 33.24192841 26.89202118 34.09300232 26.88670349 C36.06236368 26.88650795 38.03161614 26.93795848 40 27 C40.33 27.33 40.66 27.66 41 28 C40.71352467 30.33954855 40.36950465 32.67212073 40 35 C39.80682454 36.47843617 39.6191948 37.95760903 39.4375 39.4375 C39.293125 40.613125 39.14875 41.78875 39 43 C37.35 43.66 35.7 44.32 34 45 C34.29648437 44.30519531 34.59296875 43.61039063 34.8984375 42.89453125 C36.05578837 39.85340716 36.86065004 36.84912937 37.625 33.6875 C38.01558594 32.08455078 38.01558594 32.08455078 38.4140625 30.44921875 C38.70410156 29.23685547 38.70410156 29.23685547 39 28 C38.01 28.33 37.02 28.66 36 29 C33.34105893 29.08494728 30.70914623 29.11594796 28.05078125 29.09765625 C27.27816452 29.0962413 26.50554779 29.09482635 25.70951843 29.09336853 C23.24380611 29.08777466 20.77818485 29.07522333 18.3125 29.0625 C16.63997527 29.05748421 14.96744912 29.05292144 13.29492188 29.04882812 C9.19657954 29.03780724 5.09830521 29.02054684 1 29 C-1.34590451 19.61638196 0 9.67241209 0 0 Z " fill="#B35843" transform="translate(368,82)"/>
<path d="M0 0 C11.88 0 23.76 0 36 0 C37.32 1.98 38.64 3.96 40 6 C39.67 6.66 39.34 7.32 39 8 C38.01 7.01 37.02 6.02 36 5 C35.34 5.66 34.68 6.32 34 7 C33.505 5.02 33.505 5.02 33 3 C22.77 2.67 12.54 2.34 2 2 C2 52.82 2 103.64 2 156 C1.67 156 1.34 156 1 156 C0.67 104.52 0.34 53.04 0 0 Z " fill="#469A97" transform="translate(141,212)"/>
<path d="M0 0 C0 3.9286831 -1.36769026 5.10527809 -3.75 8.1875 C-15.53922126 24.02407714 -18.4474119 41.09664965 -18.4375 60.4375 C-18.43790283 61.23924652 -18.43830566 62.04099304 -18.4387207 62.86703491 C-18.40317599 75.12827608 -17.83704216 86.56019399 -13 98 C-12.72124023 98.66676758 -12.44248047 99.33353516 -12.15527344 100.02050781 C-6.31590317 113.38703976 3.08859676 123.6473123 15 132 C8.86060353 132 3.81297039 125.99210927 -0.5 122 C-17.33815968 104.69733937 -21.51339434 80.26401632 -21.42382812 57.0871582 C-21.03071474 38.10482837 -15.92733376 15.69338806 -2.0625 1.75 C-1.381875 1.1725 -0.70125 0.595 0 0 Z " fill="#337874" transform="translate(320,232)"/>
<path d="M0 0 C6.99321526 6.39804801 9.94239433 15.74989664 11 25 C11 26.65 11 28.3 11 30 C-1.54 30 -14.08 30 -27 30 C-29.31 25.71 -31.62 21.42 -34 17 C-39.75923998 10.92080224 -47.62769268 6.37841153 -56.17895508 5.87060547 C-56.95134521 5.86947754 -57.72373535 5.86834961 -58.51953125 5.8671875 C-59.37740234 5.86589844 -60.23527344 5.86460938 -61.11914062 5.86328125 C-62.00794922 5.86714844 -62.89675781 5.87101562 -63.8125 5.875 C-64.68970703 5.87113281 -65.56691406 5.86726563 -66.47070312 5.86328125 C-71.4212291 5.87068667 -76.12012902 6.16116815 -81 7 C-75.8040016 2.21968148 -68.72954666 2.69712556 -62.02734375 2.7890625 C-50.80455085 3.57103775 -40.43259671 6.92079381 -32.625 15.3125 C-30 19 -30 19 -26 28 C-14.45 28 -2.9 28 9 28 C6.62979963 14.93398718 6.62979963 14.93398718 1.20703125 4.07421875 C0 2 0 2 0 0 Z " fill="#B35C4C" transform="translate(432,29)"/>
<path d="M0 0 C4.91572121 4.08339215 9.50394049 8.46288058 14 13 C13.67 13.66 13.34 14.32 13 15 C12.4225 14.360625 11.845 13.72125 11.25 13.0625 C9.2317115 10.85824492 9.2317115 10.85824492 6.875 10.5625 C6.25625 10.376875 5.6375 10.19125 5 10 C4.7525 9.278125 4.505 8.55625 4.25 7.8125 C0.75226938 -0.05739391 -9.35964395 -3.41267885 -16.8984375 -6.453125 C-38.28820211 -14.67010505 -65.3562918 -13.64366453 -86.36328125 -4.73046875 C-90.80836103 -2.70677843 -94.83129797 -0.11809142 -98.828125 2.6796875 C-101 4 -101 4 -104 4 C-76.31863798 -19.46898084 -29.43979815 -21.21187395 0 0 Z " fill="#B85A46" transform="translate(418,14)"/>
<path d="M0 0 C1.9453125 1.6484375 1.9453125 1.6484375 4.4453125 4.1484375 C0.9324511 4.1484375 0.16976438 3.46895909 -2.6171875 1.4609375 C-17.11564709 -8.42966495 -30.99710977 -11.22067923 -48.3046875 -11.2890625 C-48.97349945 -11.2952359 -49.6423114 -11.3014093 -50.33139038 -11.30776978 C-58.00259528 -11.35321572 -64.88918529 -10.92266422 -72.19628906 -8.49243164 C-74.74313417 -7.80035416 -76.92776424 -7.74147468 -79.5546875 -7.8515625 C-61.97485155 -25.43139845 -17.40015268 -12.61111984 0 0 Z " fill="#3D837F" transform="translate(425.5546875,222.8515625)"/>
<path d="M0 0 C0 3 0 3 -1.66015625 5.0859375 C-6.70779768 9.89556006 -11.3784567 12.99029596 -17.9375 15.1875 C-18.5879126 15.40776855 -19.2383252 15.62803711 -19.90844727 15.85498047 C-21.77734375 16.41796875 -21.77734375 16.41796875 -25 17 C-25.99 16.34 -26.98 15.68 -28 15 C-28 14.01 -28 13.02 -28 12 C-24.535 11.505 -24.535 11.505 -21 11 C-21 9.68 -21 8.36 -21 7 C-20.34 7.33 -19.68 7.66 -19 8 C-18.01 7.7215625 -18.01 7.7215625 -17 7.4375 C-16.34 7.293125 -15.68 7.14875 -15 7 C-14.34 7.66 -13.68 8.32 -13 9 C-12.01 8.67 -11.02 8.34 -10 8 C-10 7.34 -10 6.68 -10 6 C-9.34 6 -8.68 6 -8 6 C-8 5.01 -8 4.02 -8 3 C-7.236875 3.061875 -6.47375 3.12375 -5.6875 3.1875 C-2.95474688 3.25898085 -2.95474688 3.25898085 -1.1875 1.5 C-0.795625 1.005 -0.40375 0.51 0 0 Z " fill="#3F9A95" transform="translate(110,298)"/>
<path d="M0 0 C2 0 2 0 4 1.875 C4.66 2.57625 5.32 3.2775 6 4 C6.66 4.66 7.32 5.32 8 6 C7.34 6 6.68 6 6 6 C6.495 7.36125 6.495 7.36125 7 8.75 C8.8450246 15.34128353 9.29710031 22.95095327 6.5 29.3125 C2.55772311 35.95212424 -2.99510072 40.14455773 -10.2956543 42.4309082 C-15.66933611 43.56172452 -21.0978982 43.30544105 -26.5625 43.1875 C-28.36170898 43.16719727 -28.36170898 43.16719727 -30.19726562 43.14648438 C-33.13198879 43.111408 -36.06574882 43.06225427 -39 43 C-39 42.67 -39 42.34 -39 42 C-38.3201001 41.98541748 -37.6402002 41.97083496 -36.93969727 41.95581055 C-33.81343718 41.8806358 -30.68816518 41.78420768 -27.5625 41.6875 C-26.49322266 41.66494141 -25.42394531 41.64238281 -24.32226562 41.61914062 C-15.19553756 41.31212531 -7.25071647 39.90174597 0 34 C4.20415708 28.43233251 5.1679674 24.59874618 5.25 17.6875 C5.28867188 15.74423828 5.28867188 15.74423828 5.328125 13.76171875 C4.97997883 9.77047155 4.00358626 7.42969778 2 4 C1.33333333 2.66666667 0.66666667 1.33333333 0 0 Z " fill="#347976" transform="translate(79,248)"/>
<path d="M0 0 C0.94875 0.86625 1.8975 1.7325 2.875 2.625 C13.26574917 11.43319018 24.2632189 15.67128437 37.97265625 15.29296875 C44.15414597 14.69476007 50.38251357 13.60353903 55.72265625 10.33203125 C56.47417969 9.89246094 57.22570312 9.45289063 58 9 C58.66 9.33 59.32 9.66 60 10 C58.80184406 12.55969678 58.00887962 14.09209581 56 16 C52.73878686 17.13216788 49.4253478 16.97215164 46 17 C44.45177124 17.05987625 42.90359797 17.12119672 41.35546875 17.18359375 C27.70171987 17.60258106 15.51532787 16.64731732 5 7 C4.4740625 6.52949219 3.948125 6.05898437 3.40625 5.57421875 C2 4.25 2 4.25 0 2 C0 1.34 0 0.68 0 0 Z " fill="#AD5C49" transform="translate(332,128)"/>
<path d="M0 0 C3.48420592 3.1703135 5.86503346 6.73088973 8.25 10.75 C8.79527344 11.65298828 8.79527344 11.65298828 9.3515625 12.57421875 C10.23953297 14.04638031 11.12049158 15.5227674 12 17 C12.928125 16.62875 13.85625 16.2575 14.8125 15.875 C15.864375 15.58625 16.91625 15.2975 18 15 C18.99 15.66 19.98 16.32 21 17 C21.50500243 20.19834873 21.27331609 21.5786377 19.5 24.3125 C19.005 24.869375 18.51 25.42625 18 26 C18.515625 26.78375 19.03125 27.5675 19.5625 28.375 C20.036875 29.24125 20.51125 30.1075 21 31 C20.67 31.66 20.34 32.32 20 33 C14.68544672 25.12993813 9.44137786 17.22014555 4.375 9.1875 C3.93752441 8.50042969 3.50004883 7.81335938 3.04931641 7.10546875 C0 2.23637921 0 2.23637921 0 0 Z " fill="#398A87" transform="translate(210,324)"/>
<path d="M0 0 C0.66 0.33 1.32 0.66 2 1 C1.30132812 1.68707031 0.60265625 2.37414062 -0.1171875 3.08203125 C-1.02726562 3.98308594 -1.93734375 4.88414063 -2.875 5.8125 C-3.77992188 6.70582031 -4.68484375 7.59914063 -5.6171875 8.51953125 C-8.88534006 11.77932323 -8.88534006 11.77932323 -10.1953125 16.04296875 C-10.17210937 16.75066406 -10.14890625 17.45835938 -10.125 18.1875 C-10.08375 19.445625 -10.0425 20.70375 -10 22 C-10.99 22.33 -11.98 22.66 -13 23 C-15.07741505 26.11612257 -15.50024456 29.3351268 -16 33 C-16.99 33 -17.98 33 -19 33 C-19.25 27.375 -19.25 27.375 -17 24 C-16.79375 22.989375 -16.5875 21.97875 -16.375 20.9375 C-14.13349238 12.58920786 -6.109986 5.76629929 0 0 Z " fill="#D06B53" transform="translate(312,19)"/>
<path d="M0 0 C-0.59167969 0.45890625 -1.18335938 0.9178125 -1.79296875 1.390625 C-3.42350829 2.65675358 -5.05235 3.925071 -6.6796875 5.1953125 C-8.38057838 6.51822763 -10.09326083 7.82601929 -11.8125 9.125 C-14.23295908 11.19967921 -16.09070763 13.45427684 -18 16 C-20.0625 14.3125 -20.0625 14.3125 -22 12 C-21.6875 9.4375 -21.6875 9.4375 -21 7 C-21.33 6.01 -21.66 5.02 -22 4 C-21.01 4 -20.02 4 -19 4 C-18.67 3.01 -18.34 2.02 -18 1 C-16.5393715 3.64738916 -16 4.89448334 -16 8 C-11.8207924 6.1425744 -9.68409539 4.61769379 -7 1 C-2.55421687 -1.27710843 -2.55421687 -1.27710843 0 0 Z " fill="#429994" transform="translate(358,245)"/>
<path d="M0 0 C2.33524782 2.25740623 4.18705073 4.2805761 6 7 C6.99 7.33 7.98 7.66 9 8 C10.6875 10.0625 10.6875 10.0625 12 12 C12.99 11.34 13.98 10.68 15 10 C15.17942163 13.94727588 15.09350689 16.5980513 13 20 C14.32 19.34 15.64 18.68 17 18 C16.773125 18.721875 16.54625 19.44375 16.3125 20.1875 C15.91478089 23.76697202 17.08680079 25.05048455 19 28 C18.67 28.66 18.34 29.32 18 30 C14.7993567 25.06302218 11.60315633 20.123219 8.41113281 15.18066406 C7.18219049 13.2815442 5.94785666 11.38611521 4.7109375 9.4921875 C4.08445313 8.52539062 3.45796875 7.55859375 2.8125 6.5625 C2.26207031 5.71816406 1.71164063 4.87382812 1.14453125 4.00390625 C0 2 0 2 0 0 Z " fill="#3E9290" transform="translate(191,294)"/>
<path d="M0 0 C5.05358014 -0.14845558 10.10588883 -0.25726186 15.16113281 -0.32958984 C16.88010771 -0.35974161 18.59892902 -0.4006713 20.31738281 -0.45263672 C22.79009864 -0.52553181 25.26077994 -0.55946901 27.734375 -0.5859375 C28.88459137 -0.63238907 28.88459137 -0.63238907 30.05804443 -0.67977905 C32.24121094 -0.68115234 32.24121094 -0.68115234 36 0 C38.51660156 3.03662109 38.51660156 3.03662109 40 6 C39.67 6.66 39.34 7.32 39 8 C38.01 7.01 37.02 6.02 36 5 C35.34 5.66 34.68 6.32 34 7 C33.505 5.02 33.505 5.02 33 3 C22.11 2.67 11.22 2.34 0 2 C0 1.34 0 0.68 0 0 Z " fill="#3B8985" transform="translate(141,212)"/>
<path d="M0 0 C5.66663736 -0.21431109 10.39990779 0.33950587 15.8125 2.125 C16.85071899 2.46059937 16.85071899 2.46059937 17.90991211 2.80297852 C27.15905659 5.91605288 34.86198186 10.33784974 42 17 C38.4871386 17 37.72445188 16.32052159 34.9375 14.3125 C23.93032733 6.84585102 12.85334668 3.90930918 0 1 C0 0.67 0 0.34 0 0 Z " fill="#357973" transform="translate(388,210)"/>
<path d="M0 0 C5.34761648 8.02142472 3.77379491 21.38846366 2.50390625 30.59765625 C1.03895603 37.0119863 -1.46406695 42.46549609 -5 48 C-6.36682561 45.26634878 -5.84683011 43.89333621 -5 41 C-4.52433594 40.57203125 -4.04867187 40.1440625 -3.55859375 39.703125 C1.94951316 33.68424126 1.34331793 22.03697964 1.171875 14.390625 C0.92782481 9.57618036 0.54735571 4.78936247 0 0 Z " fill="#337771" transform="translate(119,247)"/>
<path d="M0 0 C0.33 1.32 0.66 2.64 1 4 C4.96622597 4.72276881 8.80844744 5.16483404 12.8359375 5.31640625 C13.89941406 5.35830078 14.96289062 5.40019531 16.05859375 5.44335938 C17.15300781 5.48267578 18.24742188 5.52199219 19.375 5.5625 C20.49261719 5.60568359 21.61023438 5.64886719 22.76171875 5.69335938 C25.50770199 5.79897411 28.25376881 5.9010797 31 6 C31 6.33 31 6.66 31 7 C22.42 7 13.84 7 5 7 C5.33 7.99 5.66 8.98 6 10 C5.01 10.495 5.01 10.495 4 11 C4 10.34 4 9.68 4 9 C2.68 9 1.36 9 0 9 C-1.125 3.375 -1.125 3.375 0 0 Z " fill="#439D9A" transform="translate(33,285)"/>
<path d="M0 0 C0.66 0.33 1.32 0.66 2 1 C0.38750824 9.36398164 -1.76533704 16.58515537 -6 24 C-7.53214888 20.93570224 -7.22938548 18.3834358 -7 15 C-4.8 10.4 -4.8 10.4 -2 9 C-1.31270746 6.88153715 -1.31270746 6.88153715 -0.875 4.4375 C-0.70742188 3.61121094 -0.53984375 2.78492187 -0.3671875 1.93359375 C-0.24601562 1.29550781 -0.12484375 0.65742187 0 0 Z " fill="#C3634C" transform="translate(441,115)"/>
<path d="M0 0 C0.33 0.33 0.66 0.66 1 1 C0.71352467 3.33954855 0.36950465 5.67212073 0 8 C-0.19317546 9.47843617 -0.3808052 10.95760903 -0.5625 12.4375 C-0.7790625 14.2009375 -0.7790625 14.2009375 -1 16 C-2.65 16.66 -4.3 17.32 -6 18 C-5.70351563 17.30519531 -5.40703125 16.61039063 -5.1015625 15.89453125 C-3.94421163 12.85340716 -3.13934996 9.84912937 -2.375 6.6875 C-2.11460937 5.61886719 -1.85421875 4.55023438 -1.5859375 3.44921875 C-1.39257812 2.64097656 -1.19921875 1.83273438 -1 1 C-1.99 1.33 -2.98 1.66 -4 2 C-6.57265818 2.07029121 -9.11641431 2.09370832 -11.6875 2.0625 C-12.38939453 2.05798828 -13.09128906 2.05347656 -13.81445312 2.04882812 C-15.54300538 2.03706927 -17.27151365 2.01913454 -19 2 C-19 1.67 -19 1.34 -19 1 C-12.6337104 0.25571562 -6.4122015 -0.20356195 0 0 Z " fill="#B35F4F" transform="translate(408,109)"/>
<path d="M0 0 C0.8971875 0.7734375 0.8971875 0.7734375 1.8125 1.5625 C2.534375 2.036875 3.25625 2.51125 4 3 C4.99 2.67 5.98 2.34 7 2 C7 2.66 7 3.32 7 4 C7.66 4 8.32 4 9 4 C9 5.32 9 6.64 9 8 C13.83815477 12.98417553 19.86654432 16.79993617 26 20 C25.34 20.33 24.68 20.66 24 21 C16.24575027 17.5702357 10.03155728 11.81992369 4 6 C3.24460937 5.29101562 2.48921875 4.58203125 1.7109375 3.8515625 C0 2 0 2 0 0 Z " fill="#AD5B4A" transform="translate(301,146)"/>
<path d="M0 0 C0.33 0 0.66 0 1 0 C1 1.65 1 3.3 1 5 C10.57 5 20.14 5 30 5 C30 5.33 30 5.66 30 6 C20.02300197 7.3302664 10.04385176 7.09502917 0 7 C-0.93423645 3.98968256 -1.04449911 3.13349732 0 0 Z " fill="#A9594A" transform="translate(369,104)"/>
<path d="M0 0 C3.52081558 -0.02927632 7.04159939 -0.04689119 10.5625 -0.0625 C11.55314453 -0.07087891 12.54378906 -0.07925781 13.56445312 -0.08789062 C18.82548699 -0.10536914 23.81764665 0.07691602 29 1 C29 1.33 29 1.66 29 2 C19.01321644 3.25676377 9.04368267 3.09367165 -1 3 C-0.67 2.01 -0.34 1.02 0 0 Z " fill="#EE735A" transform="translate(189,111)"/>
<path d="M0 0 C0.33 0 0.66 0 1 0 C1.26216014 6.02968312 1.4389816 13.83962948 -2.38671875 18.796875 C-4 20 -4 20 -7 20 C-5.89473175 17.19431906 -4.74439888 14.43554753 -3.5 11.6875 C-1.9151991 7.79153113 -0.93348569 4.0929757 0 0 Z " fill="#398480" transform="translate(414,314)"/>
<path d="M0 0 C4.20240011 3.71750779 6.99782679 8.31660979 10 13 C9.67 13.66 9.34 14.32 9 15 C7.35 14.67 5.7 14.34 4 14 C4 13.34 4 12.68 4 12 C3.34 12 2.68 12 2 12 C2.33 9.69 2.66 7.38 3 5 C2.01 5.33 1.02 5.66 0 6 C0 4.02 0 2.04 0 0 Z " fill="#3C948F" transform="translate(230,297)"/>
<path d="M0 0 C2.33524782 2.25740623 4.18705073 4.2805761 6 7 C6.99 7.33 7.98 7.66 9 8 C10.88579937 11.21284338 12 13.24633583 12 17 C11.67 17.66 11.34 18.32 11 19 C9.15929441 16.21312902 7.32871822 13.41974873 5.5 10.625 C4.97535156 9.8309375 4.45070312 9.036875 3.91015625 8.21875 C3.41386719 7.45820313 2.91757813 6.69765625 2.40625 5.9140625 C1.94541016 5.2123291 1.48457031 4.5105957 1.00976562 3.78759766 C0 2 0 2 0 0 Z " fill="#307F7B" transform="translate(191,294)"/>
<path d="M0 0 C0.66 0.33 1.32 0.66 2 1 C0.23834197 5.13989637 0.23834197 5.13989637 -2 7 C-5.99652333 7.84500959 -9.92273187 7.9871784 -14 8 C-14.33 7.34 -14.66 6.68 -15 6 C-14.16855469 5.73445312 -13.33710938 5.46890625 -12.48046875 5.1953125 C-11.39378906 4.84210938 -10.30710937 4.48890625 -9.1875 4.125 C-8.10855469 3.77695313 -7.02960938 3.42890625 -5.91796875 3.0703125 C-2.86684198 2.08040347 -2.86684198 2.08040347 0 0 Z " fill="#C76853" transform="translate(390,137)"/>
<path d="M0 0 C1 3 1 3 -0.36328125 5.8828125 C-1.00652344 6.95273437 -1.64976562 8.02265625 -2.3125 9.125 C-2.94800781 10.20007813 -3.58351563 11.27515625 -4.23828125 12.3828125 C-6 15 -6 15 -8 16 C-8.6875 13.1875 -8.6875 13.1875 -9 10 C-7.21220342 7.40769496 -6.03997185 7.01332395 -3 6 C-1.29144978 2.99992729 -1.29144978 2.99992729 0 0 Z " fill="#358982" transform="translate(442,333)"/>
<path d="M0 0 C3.59930552 2.62652025 6.07666989 4.93963643 8 9 C7.67 9.66 7.34 10.32 7 11 C4.525 10.01 4.525 10.01 2 9 C1.67 9.99 1.34 10.98 1 12 C1 10.68 1 9.36 1 8 C1.66 8 2.32 8 3 8 C2.690625 7.236875 2.38125 6.47375 2.0625 5.6875 C1.32106407 3.81210323 0.63771783 1.91315348 0 0 Z " fill="#378584" transform="translate(433,231)"/>
<path d="M0 0 C3.05849168 2.75264252 4.87391379 5.00751252 6 9 C5.67 9.99 5.34 10.98 5 12 C4.67 11.34 4.34 10.68 4 10 C2.68 10 1.36 10 0 10 C0 9.34 0 8.68 0 8 C0.66 8 1.32 8 2 8 C1.34 5.36 0.68 2.72 0 0 Z " fill="#38817F" transform="translate(113,235)"/>
<path d="M0 0 C3.81684226 1.55500981 6.19195732 4.03595495 9 7 C8.67 7.66 8.34 8.32 8 9 C7.4225 8.360625 6.845 7.72125 6.25 7.0625 C3.96213771 4.9652929 2.92345791 4.60485336 0 4 C-0.33 3.34 -0.66 2.68 -1 2 C-0.67 1.34 -0.34 0.68 0 0 Z " fill="#C5644C" transform="translate(423,20)"/>
<path d="M0 0 C1.60520004 0.06023265 3.20934327 0.14908599 4.8125 0.25 C6.15248047 0.31960937 6.15248047 0.31960937 7.51953125 0.390625 C10 1 10 1 11.82421875 3.046875 C12.40623047 4.01367188 12.40623047 4.01367188 13 5 C8.15340923 4.40895235 4.39251833 3.02055843 0 1 C0 0.67 0 0.34 0 0 Z " fill="#BD5E49" transform="translate(327,167)"/>
<path d="M0 0 C0.8971875 0.7734375 0.8971875 0.7734375 1.8125 1.5625 C2.534375 2.036875 3.25625 2.51125 4 3 C4.99 2.67 5.98 2.34 7 2 C7 2.66 7 3.32 7 4 C7.66 4 8.32 4 9 4 C9 4.66 9 5.32 9 6 C6.75 6.25 6.75 6.25 4 6 C1.6875 4.125 1.6875 4.125 0 2 C0 1.34 0 0.68 0 0 Z " fill="#C76853" transform="translate(301,146)"/>
<path d="M0 0 C2.97 1.65 5.94 3.3 9 5 C5 6 5 6 2.25 4.75 C1.5075 4.1725 0.765 3.595 0 3 C0 2.01 0 1.02 0 0 Z " fill="#E06E58" transform="translate(243,16)"/>
<path d="M0 0 C3.08089673 2.77280706 4.68775452 5.06326356 6 9 C5.01 8.34 4.02 7.68 3 7 C3 6.34 3 5.68 3 5 C2.01 5.33 1.02 5.66 0 6 C0 4.02 0 2.04 0 0 Z " fill="#2D7F79" transform="translate(230,297)"/>
<path d="M0 0 C1 3 1 3 0.22265625 4.82421875 C-0.8515625 6.54947917 -1.92578125 8.27473958 -3 10 C-4.36682561 7.26634878 -3.84683011 5.89333621 -3 3 C-1.4375 1.1875 -1.4375 1.1875 0 0 Z " fill="#307F79" transform="translate(117,285)"/>
<path d="M0 0 C2 2 2 2 2.125 5.125 C2.08375 6.07375 2.0425 7.0225 2 8 C0.62437146 6.71034824 -0.70766393 5.37310707 -2 4 C-2 3.34 -2 2.68 -2 2 C-1.34 2 -0.68 2 0 2 C0 1.34 0 0.68 0 0 Z " fill="#3B8985" transform="translate(187,283)"/>
<path d="" fill="#FFFFFF" transform="translate(0,0)"/>
<path d="" fill="#FFFFFF" transform="translate(0,0)"/>
<path d="" fill="#FFFFFF" transform="translate(0,0)"/>
<path d="" fill="#FFFFFF" transform="translate(0,0)"/>
<path d="" fill="#FFFFFF" transform="translate(0,0)"/>
<path d="" fill="#FFFFFF" transform="translate(0,0)"/>
<path d="" fill="#FFFFFF" transform="translate(0,0)"/>
<path d="" fill="#FFFFFF" transform="translate(0,0)"/>
<path d="" fill="#FFFFFF" transform="translate(0,0)"/>
<path d="" fill="#FFFFFF" transform="translate(0,0)"/>
<path d="" fill="#FFFFFF" transform="translate(0,0)"/>
<path d="" fill="#FFFFFF" transform="translate(0,0)"/>
<path d="" fill="#FFFFFF" transform="translate(0,0)"/>
<path d="" fill="#FFFFFF" transform="translate(0,0)"/>
<path d="" fill="#FFFFFF" transform="translate(0,0)"/>
<path d="" fill="#FFFFFF" transform="translate(0,0)"/>
<path d="" fill="#FFFFFF" transform="translate(0,0)"/>
<path d="" fill="#FFFFFF" transform="translate(0,0)"/>
<path d="" fill="#FFFFFF" transform="translate(0,0)"/>
<path d="" fill="#FFFFFF" transform="translate(0,0)"/>
<path d="" fill="#FFFFFF" transform="translate(0,0)"/>
<path d="" fill="#FFFFFF" transform="translate(0,0)"/>
<path d="" fill="#FFFFFF" transform="translate(0,0)"/>
<path d="" fill="#FFFFFF" transform="translate(0,0)"/>
<path d="" fill="#FFFFFF" transform="translate(0,0)"/>
<path d="" fill="#FFFFFF" transform="translate(0,0)"/>
<path d="" fill="#FFFFFF" transform="translate(0,0)"/>
<path d="" fill="#FFFFFF" transform="translate(0,0)"/>
<path d="" fill="#FFFFFF" transform="translate(0,0)"/>
<path d="" fill="#FFFFFF" transform="translate(0,0)"/>
<path d="" fill="#FFFFFF" transform="translate(0,0)"/>
<path d="" fill="#FFFFFF" transform="translate(0,0)"/>
<path d="" fill="#FFFFFF" transform="translate(0,0)"/>
<path d="" fill="#FFFFFF" transform="translate(0,0)"/>
<path d="" fill="#FFFFFF" transform="translate(0,0)"/>
<path d="" fill="#FFFFFF" transform="translate(0,0)"/>
<path d="" fill="#FFFFFF" transform="translate(0,0)"/>
<path d="" fill="#FFFFFF" transform="translate(0,0)"/>
<path d="" fill="#FFFFFF" transform="translate(0,0)"/>
<path d="" fill="#FFFFFF" transform="translate(0,0)"/>
<path d="" fill="#FFFFFF" transform="translate(0,0)"/>
<path d="" fill="#FFFFFF" transform="translate(0,0)"/>
<path d="" fill="#FFFFFF" transform="translate(0,0)"/>
<path d="" fill="#FFFFFF" transform="translate(0,0)"/>
<path d="" fill="#FFFFFF" transform="translate(0,0)"/>
<path d="" fill="#FFFFFF" transform="translate(0,0)"/>
<path d="" fill="#FFFFFF" transform="translate(0,0)"/>
<path d="" fill="#FFFFFF" transform="translate(0,0)"/>
<path d="" fill="#FFFFFF" transform="translate(0,0)"/>
<path d="" fill="#FFFFFF" transform="translate(0,0)"/>
<path d="" fill="#FFFFFF" transform="translate(0,0)"/>
<path d="" fill="#FFFFFF" transform="translate(0,0)"/>
<path d="" fill="#FFFFFF" transform="translate(0,0)"/>
</svg>
