<?xml version="1.0" encoding="UTF-8"?>
<svg version="1.1" xmlns="http://www.w3.org/2000/svg" width="437" height="370">
<path d="M0 0 C11.15458445 9.67388739 17.7153833 22.14508606 19.40234375 36.78125 C19.1875 38.875 19.1875 38.875 17.92797852 40.46020508 C15.87668668 42.127653 14.73371643 42.3554273 12.125 42.60546875 C11.33335449 42.68732422 10.54170898 42.76917969 9.72607422 42.85351562 C6.31318183 43.13447695 2.90063175 43.41496769 -0.51464844 43.66552734 C-3.00473126 43.85841792 -3.00473126 43.85841792 -6.1953125 44.48828125 C-9.26041806 44.92053973 -10.94102577 45.06747269 -13.8125 43.875 C-16.56351315 40.55419772 -18.65617577 37.12143507 -20.765625 33.375 C-24.82679211 26.17531455 -31.07659213 22.4357598 -38.8125 19.875 C-41.48877082 19.26372125 -44.0734551 19.00239744 -46.8125 18.875 C-47.49828125 18.8234375 -48.1840625 18.771875 -48.890625 18.71875 C-58.77474757 18.29209723 -67.75308856 20.84581048 -75.625 26.86328125 C-85.69644172 36.12541069 -89.13534064 49.75042707 -90.01904297 62.96313477 C-90.57776651 81.10717499 -90.36351503 100.25188946 -78.08203125 114.9453125 C-76.39938138 116.47779453 -74.75326961 117.69037439 -72.8125 118.875 C-72.19632812 119.25914062 -71.58015625 119.64328125 -70.9453125 120.0390625 C-60.20811917 126.03291741 -48.2542406 126.02940382 -36.671875 122.83984375 C-28.50461148 120.08395018 -23.25271733 115.22863694 -18.8125 107.875 C-18.01447312 105.79545698 -17.27997786 103.6904679 -16.609375 101.56640625 C-16.26745117 100.49720947 -15.92552734 99.4280127 -15.57324219 98.32641602 C-15.32219727 97.51744873 -15.07115234 96.70848145 -14.8125 95.875 C-15.77140137 95.88547363 -16.73030273 95.89594727 -17.71826172 95.90673828 C-21.27030719 95.94289328 -24.82233634 95.96588393 -28.37451172 95.98486328 C-29.91295098 95.99493118 -31.45137107 96.00858646 -32.98974609 96.02587891 C-35.19894133 96.05009317 -37.40788395 96.06147491 -39.6171875 96.0703125 C-40.30682587 96.08063507 -40.99646423 96.09095764 -41.70700073 96.10159302 C-43.41050906 96.10199478 -45.11335943 95.99691026 -46.8125 95.875 C-47.4725 95.215 -48.1325 94.555 -48.8125 93.875 C-48.8125 84.305 -48.8125 74.735 -48.8125 64.875 C-25.3825 64.875 -1.9525 64.875 22.1875 64.875 C22.1875 95.30356489 20.68970149 117.13663716 0.0625 139.5625 C-14.20110911 153.26145677 -33.93638133 158.26608655 -53.24389648 158.17749023 C-73.8729617 157.68386207 -93.18597161 150.35185782 -108.1875 136.0625 C-117.44351581 126.18435854 -122.73919284 115.59410127 -126.8125 102.875 C-127.1425 101.86695313 -127.4725 100.85890625 -127.8125 99.8203125 C-134.99440869 74.89080254 -131.34959813 44.83616025 -119.4375 22.1875 C-108.74819008 3.79657548 -91.65357553 -7.1939649 -71.50390625 -13.09375 C-46.68396503 -19.07045825 -20.58572747 -15.58225205 0 0 Z " fill="#DF8263" transform="translate(409.8125,211.125)"/>
<path d="M0 0 C10.56 0 21.12 0 32 0 C39.00828662 7.42462048 39.00828662 7.42462048 40.46484375 11.3671875 C43.21851198 17.90402172 47.15161682 23.5777789 51.10531616 29.42556763 C53.21234314 32.55691206 55.27199487 35.71907216 57.3359375 38.87890625 C58.13887404 40.10441025 58.94193126 41.32983521 59.74511719 42.55517578 C66.70190584 53.17839993 73.60323142 63.83775433 80.5 74.5 C86.65285203 84.00895313 92.82747393 93.50380604 99 103 C99.33 69.01 99.66 35.02 100 0 C111.22 0 122.44 0 134 0 C134.15360278 17.86424667 134.30250079 35.72851198 134.4429636 53.59286594 C134.50834232 61.88900594 134.57577959 70.18511935 134.64819336 78.48120117 C134.71135971 85.71846783 134.77053088 92.9557547 134.82505554 100.19309181 C134.85401745 104.01936453 134.88487719 107.8455992 134.92053413 111.67181587 C134.95414898 115.28571238 134.98235349 118.89961374 135.00670624 122.51358414 C135.02105496 124.44661286 135.04087226 126.37959868 135.06095886 128.31257629 C135.11189663 136.92477584 134.67463992 145.41853592 134 154 C122.24790391 156.59629842 108.30653404 159.6229432 97 154 C85.14516667 144.39550767 77.98560182 128.50911524 70.90917969 115.30395508 C67.41549657 108.82734903 63.38593937 102.79865358 59.2026062 96.75473022 C57.08833888 93.66978956 55.05132683 90.53440567 53.0078125 87.40234375 C52.19276555 86.1568636 51.37766176 84.91142064 50.5625 83.66601562 C49.74996069 82.42320278 48.93746094 81.18036407 48.125 79.9375 C46.87830261 78.03131424 45.63141305 76.12525466 44.38424683 74.21937561 C43.26896656 72.51490823 42.1542391 70.81007917 41.03955078 69.10522461 C39.04011508 66.06107538 37.02025038 63.03037556 35 60 C34.67 91.02 34.34 122.04 34 154 C22.78 154 11.56 154 0 154 C0 103.18 0 52.36 0 0 Z " fill="#4AA2A2" transform="translate(137,5)"/>
<path d="M0 0 C11.07427418 10.126555 17.62245755 22.67109593 18.71484375 37.69140625 C18.46484375 40.25390625 18.46484375 40.25390625 16.46484375 42.25390625 C13.39030377 42.7607511 10.36232297 42.89866914 7.25 43.046875 C3.43837687 43.2007463 3.43837687 43.2007463 -0.4140625 43.8046875 C-4.51091075 44.21395892 -7.55227442 44.33768362 -11.53515625 43.25390625 C-14.51803989 39.99663273 -16.42617715 36.69339075 -18.4921875 32.82421875 C-22.55048428 25.2803766 -29.60722262 21.67259787 -37.53515625 19.25390625 C-47.27101205 16.33109119 -58.04797518 17.87341092 -66.94140625 22.5078125 C-75.65053086 27.83489372 -80.83669864 35.45902408 -83.53515625 45.25390625 C-87.12130712 64.38683616 -88.30885076 87.80321872 -76.84765625 104.56640625 C-70.77128839 111.97957504 -62.90362215 115.76881258 -53.53515625 117.25390625 C-42.36937601 118.22367245 -32.78791893 116.639717 -23.57421875 110.046875 C-17.21690217 104.45682076 -15.20933676 98.27644779 -12.53515625 90.25390625 C-23.09515625 90.25390625 -33.65515625 90.25390625 -44.53515625 90.25390625 C-45.83292542 87.65836791 -45.6646566 85.74685098 -45.66796875 82.84375 C-45.66925781 81.77189453 -45.67054688 80.70003906 -45.671875 79.59570312 C-45.66800781 78.47228516 -45.66414063 77.34886719 -45.66015625 76.19140625 C-45.66402344 75.06412109 -45.66789062 73.93683594 -45.671875 72.77539062 C-45.67058594 71.70482422 -45.66929687 70.63425781 -45.66796875 69.53125 C-45.66684082 68.54374756 -45.66571289 67.55624512 -45.66455078 66.53881836 C-45.53515625 64.25390625 -45.53515625 64.25390625 -44.53515625 63.25390625 C-42.51021394 63.15981146 -40.48195755 63.13647503 -38.45483398 63.14038086 C-36.50292397 63.14049416 -36.50292397 63.14049416 -34.51158142 63.14060974 C-33.08063723 63.14571716 -31.64969343 63.15093317 -30.21875 63.15625 C-28.76286365 63.15811422 -27.30697668 63.1595381 -25.85108948 63.16053772 C-22.01236246 63.1643626 -18.17367306 63.17419261 -14.33496094 63.1852417 C-10.42057809 63.19545647 -6.50618919 63.20003548 -2.59179688 63.20507812 C5.09376718 63.21581491 12.7793002 63.23289096 20.46484375 63.25390625 C20.51075722 67.21871107 20.53816637 71.18344614 20.5625 75.1484375 C20.57559204 76.25964966 20.58868408 77.37086182 20.60217285 78.51574707 C20.69627119 99.01036625 14.49481311 116.50992792 0.29296875 131.5546875 C-10.97750815 142.5120956 -25.90802758 148.41944792 -41.53515625 149.25390625 C-42.94667969 149.33318359 -42.94667969 149.33318359 -44.38671875 149.4140625 C-65.9872622 150.03045518 -85.23366566 143.34617042 -101.28515625 128.75390625 C-102.02765625 127.92890625 -102.77015625 127.10390625 -103.53515625 126.25390625 C-104.06367188 125.72925781 -104.5921875 125.20460937 -105.13671875 124.6640625 C-119.68850593 109.50327982 -122.71913628 88.82391647 -122.77539062 68.72705078 C-122.78504153 66.65355437 -122.81613123 64.58107544 -122.84765625 62.5078125 C-123.00893337 42.16756572 -117.66516661 22.82200176 -103.47265625 7.62890625 C-77.27177218 -17.19298392 -29.21822826 -23.15489668 0 0 Z " fill="#4AA3A3" transform="translate(415.53515625,14.74609375)"/>
<path d="M0 0 C94.06624732 0 94.06624732 0 110.375 14.5625 C122.2135816 27.4545147 123.6865664 43.37453261 123.37109375 60.01953125 C122.7533881 74.01133369 116.884377 85.81732567 106.625 95.375 C95.06431932 104.45091899 80.5874495 107.19396247 66.22265625 107.09765625 C65.14220032 107.09614563 65.14220032 107.09614563 64.03991699 107.09460449 C61.38076151 107.08942095 58.72162895 107.07546017 56.0625 107.0625 C50.101875 107.041875 44.14125 107.02125 38 107 C38 125.81 38 144.62 38 164 C25.46 164 12.92 164 0 164 C0 109.88 0 55.76 0 0 Z M38 29 C38 44.84 38 60.68 38 77 C45.6725 77.0928125 45.6725 77.0928125 53.5 77.1875 C55.09779297 77.21481201 56.69558594 77.24212402 58.34179688 77.27026367 C69.67383298 77.63280891 69.67383298 77.63280891 79.50146484 72.65356445 C86.2415995 65.15267873 85.67682897 56.57727557 85.19970703 47.09472656 C84.66454509 41.48141425 82.5596735 37.64632202 78.75 33.625 C70.04838787 28.48313829 62.43457489 28.63080919 52.5 28.8125 C45.3225 28.9053125 45.3225 28.9053125 38 29 Z " fill="#E08263" transform="translate(140,201)"/>
<path d="M0 0 C1.1545166 0.00792068 2.3090332 0.01584137 3.49853516 0.02400208 C5.45823242 0.03478035 5.45823242 0.03478035 7.45751953 0.04577637 C8.90088563 0.05973019 10.34424513 0.07438226 11.78759766 0.0896759 C12.51567627 0.09663294 13.24375488 0.10358997 13.99389648 0.11075783 C17.86499622 0.14827571 21.73596281 0.19229426 25.60693359 0.24128723 C29.5612378 0.29004635 33.51534451 0.31666193 37.46987915 0.33771801 C40.54353475 0.35837588 43.61681861 0.39636117 46.69024658 0.43857765 C48.14424619 0.45565274 49.59833476 0.46655056 51.0524292 0.47052574 C65.97041048 0.52314637 80.79433718 2.56065867 93.41259766 11.10920715 C94.06486328 11.54877747 94.71712891 11.98834778 95.38916016 12.4412384 C105.44872873 20.1299395 109.71687608 31.97463471 111.41259766 44.10920715 C112.95940674 58.80558582 110.91810408 75.28580319 101.41259766 87.10920715 C92.09551124 97.4080144 79.08348885 103.28863631 65.25494385 104.26091003 C59.70134446 104.47013685 54.15584507 104.38286839 48.60009766 104.29670715 C42.92822266 104.23483215 37.25634766 104.17295715 31.41259766 104.10920715 C31.41259766 120.93920715 31.41259766 137.76920715 31.41259766 155.10920715 C19.86259766 155.10920715 8.31259766 155.10920715 -3.58740234 155.10920715 C-3.60994802 135.04737097 -3.62838073 114.985545 -3.63921452 94.92369938 C-3.64437781 85.60931 -3.65142115 76.29492903 -3.6628418 66.98054504 C-3.6727876 58.86515356 -3.67925552 50.74976816 -3.68149084 42.63437074 C-3.68279812 38.33460928 -3.68588508 34.03486523 -3.6931324 29.73510933 C-3.69989099 25.69277873 -3.70201964 21.65047284 -3.70051003 17.60813713 C-3.70078643 16.12016542 -3.70279251 14.63219292 -3.70660782 13.14422607 C-3.71154248 11.12145578 -3.7098005 9.0986724 -3.70765686 7.07589722 C-3.70857865 5.94117005 -3.70950045 4.80644289 -3.71045017 3.63733006 C-3.54296531 0.19621025 -3.44828216 0.14554253 0 0 Z M31.41259766 29.10920715 C31.41259766 44.61920715 31.41259766 60.12920715 31.41259766 76.10920715 C35.84697266 76.17108215 40.28134766 76.23295715 44.85009766 76.29670715 C46.2299585 76.32401917 47.60981934 76.35133118 49.03149414 76.37947083 C60.38158896 76.50229473 60.38158896 76.50229473 70.28100586 71.5584259 C76.04101734 65.77959379 76.47938122 58.85066123 76.72509766 51.04670715 C76.58657899 44.99036339 75.97605985 40.00928559 71.86572266 35.35920715 C66.33358745 30.26768448 60.98868479 28.84747187 53.48291016 28.91389465 C51.73905029 28.92138733 51.73905029 28.92138733 49.95996094 28.92903137 C47.77089111 28.95634338 47.77089111 28.95634338 45.53759766 28.98420715 C38.54572266 29.04608215 38.54572266 29.04608215 31.41259766 29.10920715 Z " fill="#4AA3A3" transform="translate(7.58740234375,3.8907928466796875)"/>
<path d="M0 0 C12.54 0 25.08 0 38 0 C38.09054494 16.07346853 38.16412353 32.14671695 38.20724869 48.22037029 C38.22781106 55.68484868 38.25580937 63.14915652 38.30175781 70.61352539 C38.34182072 77.12492824 38.3674787 83.63620748 38.37635398 90.14773017 C38.38153613 93.59064892 38.3935809 97.03321425 38.42292023 100.47601891 C38.45216394 104.33407501 38.4559471 108.19141058 38.45410156 112.04956055 C38.46848267 113.17166428 38.48286377 114.29376801 38.49768066 115.44987488 C38.42398857 129.78501087 33.5987407 142.32805217 23.75 152.75 C10.7244189 165.11993105 -3.70777258 167.42652117 -21 167.21875 C-31.75823147 166.89664726 -44.20150256 163.45223146 -53 157 C-53 156.34 -53 155.68 -53 155 C-53.88365234 154.62101562 -53.88365234 154.62101562 -54.78515625 154.234375 C-63.37202861 149.44874596 -66.42051371 138.82568036 -69 130 C-70.05410647 125.55442053 -70.07713801 121.55114258 -70 117 C-65.64501818 114.82250909 -60.03084139 115.24758474 -55.1965332 114.90527344 C-53.0729958 114.75076368 -50.95190161 114.57474313 -48.83007812 114.3984375 C-47.48186742 114.30074122 -46.13356183 114.20434377 -44.78515625 114.109375 C-43.55676025 114.01624023 -42.32836426 113.92310547 -41.06274414 113.82714844 C-38 114 -38 114 -36.13354492 115.35131836 C-34.71349324 117.41670906 -34.02560212 119.43081613 -33.25 121.8125 C-31.25201507 126.96956298 -28.94203593 130.35906921 -24 133 C-19.32445015 134.45645447 -15.87404005 134.25791346 -11.1875 132.875 C-5.15480277 129.32635457 -2.92663328 124.47937818 -1 118 C-0.23295621 114.64289024 0.12408208 111.54979242 0.12025452 108.10881042 C0.12162918 107.1511377 0.12300385 106.19346497 0.12442017 105.20677185 C0.12082489 104.16811478 0.11722961 103.1294577 0.11352539 102.05932617 C0.11367142 100.95644257 0.11381744 99.85355896 0.1139679 98.71725464 C0.11327184 95.07580593 0.10549373 91.43440851 0.09765625 87.79296875 C0.09579098 85.26662728 0.09436759 82.74028544 0.09336853 80.21394348 C0.08994192 74.24650924 0.08206226 68.27909699 0.07201904 62.31167156 C0.06083089 55.51604054 0.05534065 48.72040864 0.05032361 41.92477071 C0.03987891 27.94983511 0.02154424 13.97492268 0 0 Z " fill="#E08263" transform="translate(73,201)"/>
<path d="M0 0 C11.22 0 22.44 0 34 0 C34.15360278 17.86424667 34.30250079 35.72851198 34.4429636 53.59286594 C34.50834232 61.88900594 34.57577959 70.18511935 34.64819336 78.48120117 C34.71135971 85.71846783 34.77053088 92.9557547 34.82505554 100.19309181 C34.85401745 104.01936453 34.88487719 107.8455992 34.92053413 111.67181587 C34.95414898 115.28571238 34.98235349 118.89961374 35.00670624 122.51358414 C35.02105496 124.44661286 35.04087226 126.37959868 35.06095886 128.31257629 C35.11189663 136.92477584 34.67463992 145.41853592 34 154 C33.34 154 32.68 154 32 154 C32 103.51 32 53.02 32 1 C22.1 1 12.2 1 2 1 C2 35.65 2 70.3 2 106 C0.02 106.495 0.02 106.495 -2 107 C-2.49628906 106.10539062 -2.99257812 105.21078125 -3.50390625 104.2890625 C-7.11683174 97.83580933 -10.83157281 91.61638875 -15.16015625 85.609375 C-17.32070224 82.54516116 -19.35618315 79.40832488 -21.375 76.25 C-21.75390381 75.65775635 -22.13280762 75.0655127 -22.52319336 74.45532227 C-24.06307787 72.04423436 -25.59909765 69.63070469 -27.13378906 67.21630859 C-28.25386581 65.45542339 -29.37607457 63.69593108 -30.5 61.9375 C-30.86818848 61.36136963 -31.23637695 60.78523926 -31.61572266 60.19165039 C-34.23415991 56.12227203 -36.96645448 52.14526314 -39.75 48.1875 C-42.70991213 43.95759096 -45.34322226 39.7262945 -47.76171875 35.171875 C-49.17937514 32.68538619 -50.77641296 30.39308835 -52.4375 28.0625 C-54.90113534 24.60258135 -57.26114635 21.11021644 -59.5 17.5 C-60.0053125 16.6853125 -60.510625 15.870625 -61.03125 15.03125 C-61.3509375 14.3609375 -61.670625 13.690625 -62 13 C-61.67 12.34 -61.34 11.68 -61 11 C-43.48239121 37.08625879 -43.48239121 37.08625879 -35.40258789 50.00415039 C-30.47875487 57.86660383 -25.40427878 65.62851877 -20.32421875 73.390625 C-13.87163407 83.25311216 -7.43818938 93.12810962 -1 103 C-0.67 69.01 -0.34 35.02 0 0 Z " fill="#3C8380" transform="translate(237,5)"/>
<path d="M0 0 C1.78606659 0.02545395 1.78606659 0.02545395 3.60821533 0.05142212 C4.26357269 0.05942337 4.91893005 0.06742462 5.59414673 0.07566833 C7.77244175 0.10366858 9.95054408 0.13911294 12.12872314 0.17495728 C13.63988815 0.19672105 15.1510577 0.21817081 16.66223145 0.23931885 C19.83666805 0.28490157 23.01102224 0.33412284 26.18536377 0.38589478 C30.24840041 0.45189859 34.31150296 0.50927133 38.37470627 0.56392479 C41.49920078 0.60686201 44.62361531 0.6542677 47.74802399 0.703022 C49.245476 0.72588195 50.74294921 0.74739571 52.24044037 0.76752853 C54.33969444 0.79645484 56.43876791 0.83136455 58.53790283 0.86782837 C60.32874298 0.8956691 60.32874298 0.8956691 62.15576172 0.92407227 C64.9924257 1.07139214 67.57168198 1.44242672 70.33184814 2.08901978 C70.33184814 2.74901978 70.33184814 3.40901978 70.33184814 4.08901978 C67.36184814 3.75901978 64.39184814 3.42901978 61.33184814 3.08901978 C40.54184814 2.75901978 19.75184814 2.42901978 -1.66815186 2.08901978 C-1.33815186 51.91901978 -1.00815186 101.74901978 -0.66815186 153.08901978 C8.90184814 153.08901978 18.47184814 153.08901978 28.33184814 153.08901978 C28.39243408 149.56343384 28.45302002 146.0378479 28.51544189 142.40542603 C28.57717607 139.00655857 28.64058662 135.60772626 28.7041626 132.20889282 C28.74758624 129.8391327 28.78925564 127.46933978 28.8291626 125.09951782 C28.88668582 121.70138644 28.95043118 118.30342135 29.01544189 114.90542603 C29.03215439 113.83877213 29.04886688 112.77211823 29.06608582 111.67314148 C29.08603104 110.69220016 29.10597626 109.71125885 29.12652588 108.70059204 C29.14207016 107.83233292 29.15761444 106.96407379 29.17362976 106.06950378 C29.33184814 104.08901978 29.33184814 104.08901978 30.33184814 103.08901978 C32.42318559 102.96637962 34.51839781 102.9091212 36.61309814 102.87808228 C37.92262451 102.85189819 39.23215088 102.82571411 40.58135986 102.79873657 C41.27614441 102.78547333 41.97092896 102.77221008 42.68676758 102.75854492 C64.15091736 102.31301647 82.59481916 100.92411365 99.33184814 86.08901978 C100.32184814 84.60401978 100.32184814 84.60401978 101.33184814 83.08901978 C101.99184814 83.41901978 102.65184814 83.74901978 103.33184814 84.08901978 C94.34024855 95.90392026 81.93267814 102.08248229 67.33184814 104.08901978 C64.50254049 104.16960461 61.69907639 104.20605538 58.87091064 104.18667603 C58.16925781 104.18566895 57.46760498 104.18466187 56.74468994 104.18362427 C54.14872581 104.17843178 51.55278516 104.16447081 48.95684814 104.15151978 C43.14059814 104.13089478 37.32434814 104.11026978 31.33184814 104.08901978 C31.33184814 120.91901978 31.33184814 137.74901978 31.33184814 155.08901978 C19.78184814 155.08901978 8.23184814 155.08901978 -3.66815186 155.08901978 C-3.69069753 135.02718359 -3.70913024 114.96535762 -3.71996403 94.903512 C-3.72512733 85.58912262 -3.73217067 76.27474165 -3.74359131 66.96035767 C-3.75353712 58.84496618 -3.76000504 50.72958078 -3.76224035 42.61418337 C-3.76354763 38.3144219 -3.76663459 34.01467785 -3.77388191 29.71492195 C-3.7806405 25.67259136 -3.78276915 21.63028546 -3.78125954 17.58794975 C-3.78153594 16.09997804 -3.78354202 14.61200555 -3.78735733 13.1240387 C-3.79229199 11.1012684 -3.79055002 9.07848502 -3.78840637 7.05570984 C-3.78932817 5.92098268 -3.79024996 4.78625551 -3.79119968 3.61714268 C-3.62134919 0.12741901 -3.5070559 0.11700883 0 0 Z " fill="#398B89" transform="translate(7.66815185546875,3.910980224609375)"/>
<path d="M0 0 C12.54 0 25.08 0 38 0 C38.02256907 16.22889396 38.04099207 32.45777454 38.05181217 48.68667984 C38.05696955 56.22195243 38.06400165 63.75721458 38.07543945 71.29248047 C38.0854033 77.85982926 38.09185749 84.42717049 38.09408849 90.99452662 C38.0953927 94.47222374 38.0984603 97.94989923 38.10573006 101.42758942 C38.11377766 105.30882677 38.11399004 109.19004292 38.11352539 113.07128906 C38.11712067 114.22575027 38.12071594 115.38021149 38.12442017 116.56965637 C38.1230455 117.62692429 38.12167084 118.6841922 38.12025452 119.77349854 C38.12117631 120.69160435 38.1220981 121.60971016 38.12304783 122.55563736 C38.00773433 124.84635648 37.64573255 126.80595457 37 129 C36.34 128.67 35.68 128.34 35 128 C35.24114784 126.38605347 35.24114784 126.38605347 35.48716736 124.73950195 C36.17225406 119.22110415 36.17583093 113.72232564 36.20532227 108.16796875 C36.21522186 107.00612564 36.22512146 105.84428253 36.23532104 104.64723206 C36.2667739 100.82734172 36.29162913 97.00743897 36.31640625 93.1875 C36.33698979 90.53092032 36.3579407 87.87434608 36.37937927 85.21777344 C36.42913377 78.95297939 36.47413596 72.68816072 36.51740164 66.42331886 C36.56692215 59.28660166 36.62178495 52.14992859 36.67708123 45.01325417 C36.79063629 30.34221016 36.89682709 15.6711208 37 1 C25.45 1 13.9 1 2 1 C2.0314209 6.18456909 2.0314209 6.18456909 2.06347656 11.47387695 C2.12987233 22.91707297 2.1741899 34.36029597 2.20724869 45.80363178 C2.22781973 52.73906123 2.25583483 59.67430739 2.30175781 66.60961914 C2.34608736 73.30751745 2.36916442 80.00518638 2.37950897 86.70323753 C2.38687729 89.25360287 2.40126574 91.80395828 2.42292023 94.35424232 C2.45212333 97.93731467 2.4559488 101.51961025 2.45410156 105.1027832 C2.46848267 106.14792084 2.48286377 107.19305847 2.49768066 108.26986694 C2.4541446 116.11748132 1.39995425 124.26964823 -4.07244492 130.273839 C-9.4490271 135.12287781 -12.86463133 136.43076399 -20.109375 136.3359375 C-25.51249851 135.70800693 -29.14959043 133.29885066 -32.53125 129.09765625 C-35.17490318 125.09375128 -36.44128254 121.67615238 -38 117 C-47.9 117.33 -57.8 117.66 -68 118 C-66.07638706 130.50348413 -64.47961009 139.23495349 -57 149 C-57 149.66 -57 150.32 -57 151 C-56.34 151 -55.68 151 -55 151 C-55 151.66 -55 152.32 -55 153 C-54.43152344 153.28101563 -53.86304687 153.56203125 -53.27734375 153.8515625 C-51.80048973 154.5963225 -50.33340845 155.36091697 -48.87890625 156.1484375 C-32.32395904 164.91446351 -14.22010532 166.89698309 4 162 C5.32490409 161.46737288 6.63913269 160.90689451 7.9375 160.3125 C11 159 11 159 14 160 C-0.13791502 167.88113561 -16.80318063 169.500509 -32.625 165.75 C-39.56800189 163.66808147 -47.10270562 161.32468255 -53 157 C-53 156.34 -53 155.68 -53 155 C-53.88365234 154.62101562 -53.88365234 154.62101562 -54.78515625 154.234375 C-63.37202861 149.44874596 -66.42051371 138.82568036 -69 130 C-70.05410647 125.55442053 -70.07713801 121.55114258 -70 117 C-65.64501818 114.82250909 -60.03084139 115.24758474 -55.1965332 114.90527344 C-53.0729958 114.75076368 -50.95190161 114.57474313 -48.83007812 114.3984375 C-47.48186742 114.30074122 -46.13356183 114.20434377 -44.78515625 114.109375 C-43.55676025 114.01624023 -42.32836426 113.92310547 -41.06274414 113.82714844 C-38 114 -38 114 -36.13354492 115.35131836 C-34.71349324 117.41670906 -34.02560212 119.43081613 -33.25 121.8125 C-31.25201507 126.96956298 -28.94203593 130.35906921 -24 133 C-19.32445015 134.45645447 -15.87404005 134.25791346 -11.1875 132.875 C-5.15480277 129.32635457 -2.92663328 124.47937818 -1 118 C-0.23295621 114.64289024 0.12408208 111.54979242 0.12025452 108.10881042 C0.12162918 107.1511377 0.12300385 106.19346497 0.12442017 105.20677185 C0.12082489 104.16811478 0.11722961 103.1294577 0.11352539 102.05932617 C0.11367142 100.95644257 0.11381744 99.85355896 0.1139679 98.71725464 C0.11327184 95.07580593 0.10549373 91.43440851 0.09765625 87.79296875 C0.09579098 85.26662728 0.09436759 82.74028544 0.09336853 80.21394348 C0.08994192 74.24650924 0.08206226 68.27909699 0.07201904 62.31167156 C0.06083089 55.51604054 0.05534065 48.72040864 0.05032361 41.92477071 C0.03987891 27.94983511 0.02154424 13.97492268 0 0 Z " fill="#BA6A50" transform="translate(73,201)"/>
<path d="M0 0 C25.08 0 50.16 0 76 0 C76.495 0.99 76.495 0.99 77 2 C52.25 1.67 27.5 1.34 2 1 C2.33 54.13 2.66 107.26 3 162 C13.89 162 24.78 162 36 162 C36 143.85 36 125.7 36 107 C36.66 107 37.32 107 38 107 C38 125.81 38 144.62 38 164 C25.46 164 12.92 164 0 164 C0 109.88 0 55.76 0 0 Z " fill="#C4684B" transform="translate(140,201)"/>
<path d="M0 0 C14.25635605 0.99462949 26.64846305 8.6836359 35.875 19.25 C42.76483408 28.14885546 48.12354765 40.48363654 47 52 C43.82095423 55.17904577 40.1388232 54.58565128 35.78515625 54.79296875 C31.97353312 54.94684005 31.97353312 54.94684005 28.12109375 55.55078125 C24.0242455 55.96005267 20.98288183 56.08377737 17 55 C14.01711636 51.74272648 12.1089791 48.4394845 10.04296875 44.5703125 C5.98467197 37.02647035 -1.07206637 33.41869162 -9 31 C-18.7358558 28.07718494 -29.51281893 29.61950467 -38.40625 34.25390625 C-47.11537461 39.58098747 -52.30154239 47.20511783 -55 57 C-58.01694709 73.09609838 -57.21207621 88.86369408 -55 105 C-55.66 105 -56.32 105 -57 105 C-61.57769711 86.20033129 -62.96468319 62.04786106 -52.6875 44.796875 C-46.07360509 35.37926377 -38.07953083 29.97866061 -26.9375 27.25 C-14.13694149 26.16059076 -3.4961158 28.23988895 6.5625 36.5625 C11.45459071 41.05610152 14.64693793 46.32174905 18 52 C19.05897436 53.29261942 19.05897436 53.29261942 21.50024414 53.02172852 C22.58426514 52.97459717 23.66828613 52.92746582 24.78515625 52.87890625 C25.95498047 52.83056641 27.12480469 52.78222656 28.33007812 52.73242188 C29.56177734 52.67634766 30.79347656 52.62027344 32.0625 52.5625 C33.91584961 52.48418945 33.91584961 52.48418945 35.80664062 52.40429688 C38.87132191 52.27413667 41.93571613 52.13915654 45 52 C44.04403761 43.82956769 42.4636209 36.87003983 39.0234375 29.36328125 C38 27 38 27 38 25 C37.34 25 36.68 25 36 25 C35.401875 24.0925 34.80375 23.185 34.1875 22.25 C32.03387544 19.05032922 30.06366501 17.27810988 27 15 C26.52046875 14.51660156 26.0409375 14.03320312 25.546875 13.53515625 C18.59729628 6.63822585 9.11332119 4.59906612 0 2 C0 1.34 0 0.68 0 0 Z " fill="#33847F" transform="translate(387,3)"/>
<path d="M0 0 C23.43 0 46.86 0 71 0 C71 36.51575931 71 36.51575931 64 52 C63.34 52 62.68 52 62 52 C62.18175781 51.42894531 62.36351562 50.85789062 62.55078125 50.26953125 C67.86299378 33.13424058 68.33383325 19.65266912 69 1 C46.89 1.33 24.78 1.66 2 2 C2 10.58 2 19.16 2 28 C4.28679687 28.06058594 6.57359375 28.12117188 8.9296875 28.18359375 C11.14049622 28.24537353 13.35125324 28.30876519 15.56201172 28.37231445 C17.10037653 28.41566926 18.63878963 28.45734395 20.17724609 28.49731445 C22.3865414 28.55500398 24.59559348 28.61870179 26.8046875 28.68359375 C27.49432587 28.70030624 28.18396423 28.71701874 28.89450073 28.73423767 C33.77225659 28.88612829 33.77225659 28.88612829 36 30 C34.48278347 40.84696591 30.49423961 48.94296362 22 56 C14.49935556 61.29457255 5.14982448 63.62385167 -4 63 C-4.66 64.32 -5.32 65.64 -6 67 C-7.32 66.34 -8.64 65.68 -10 65 C-9.67 64.34 -9.34 63.68 -9 63 C-13.95 61.02 -13.95 61.02 -19 59 C-18.67 58.34 -18.34 57.68 -18 57 C-17.319375 57.309375 -16.63875 57.61875 -15.9375 57.9375 C-5.12919928 61.84688537 6.88881873 60.51760412 17.296875 56.00390625 C25.02882858 51.67341287 29.57192815 45.02543629 32.203125 36.69140625 C32.54504883 35.62220947 32.88697266 34.5530127 33.23925781 33.45141602 C33.49030273 32.64244873 33.74134766 31.83348145 34 31 C33.04109863 31.01047363 32.08219727 31.02094727 31.09423828 31.03173828 C27.54219281 31.06789328 23.99016366 31.09088393 20.43798828 31.10986328 C18.89954902 31.11993118 17.36112893 31.13358646 15.82275391 31.15087891 C13.61355867 31.17509317 11.40461605 31.18647491 9.1953125 31.1953125 C8.50567413 31.20563507 7.81603577 31.21595764 7.10549927 31.22659302 C5.40199094 31.22699478 3.69914057 31.12191026 2 31 C1.34 30.34 0.68 29.68 0 29 C0 19.43 0 9.86 0 0 Z " fill="#BF6C51" transform="translate(361,276)"/>
<path d="M0 0 C1.15249741 0.00222061 2.30499481 0.00444122 3.49241638 0.00672913 C5.4443264 0.00684242 5.4443264 0.00684242 7.43566895 0.00695801 C8.86661313 0.01206543 10.29755694 0.01728144 11.72850037 0.02259827 C13.18438672 0.02446249 14.64027369 0.02588637 16.09616089 0.02688599 C19.93488791 0.03071086 23.77357731 0.04054088 27.61228943 0.05158997 C31.52667227 0.06180474 35.44106117 0.06638375 39.35545349 0.07142639 C47.04101755 0.08216318 54.72655057 0.09923923 62.41209412 0.12025452 C62.45800759 4.08505934 62.48541674 8.04979441 62.50975037 12.01478577 C62.52284241 13.12599792 62.53593445 14.23721008 62.54942322 15.38209534 C62.64352156 35.87671452 56.44206348 53.37627618 42.24021912 68.42103577 C28.54031158 81.74039031 10.92270687 86.35400534 -7.71681213 86.15541077 C-8.64300354 86.13800842 -8.64300354 86.13800842 -9.58790588 86.12025452 C-7.1908921 83.72324073 -6.2970765 83.76356817 -3.00196838 83.40931702 C-2.07698547 83.30151917 -1.15200256 83.19372131 -0.19898987 83.08265686 C0.78641785 82.97131409 1.77182556 82.85997131 2.78709412 82.74525452 C19.20743402 80.64769362 34.07191934 75.93051761 44.79490662 62.46009827 C58.43763824 42.72097691 59.42363086 25.83183595 60.41209412 1.12025452 C39.95209412 1.12025452 19.49209412 1.12025452 -1.58790588 1.12025452 C-1.58790588 9.37025452 -1.58790588 17.62025452 -1.58790588 26.12025452 C8.97209412 26.12025452 19.53209412 26.12025452 30.41209412 26.12025452 C30.08209412 29.09025452 29.75209412 32.06025452 29.41209412 35.12025452 C28.75209412 35.12025452 28.09209412 35.12025452 27.41209412 35.12025452 C28.07209412 32.48025452 28.73209412 29.84025452 29.41209412 27.12025452 C18.85209412 27.12025452 8.29209412 27.12025452 -2.58790588 27.12025452 C-3.88567505 24.52471617 -3.71740623 22.61319925 -3.72071838 19.71009827 C-3.72265198 18.10231506 -3.72265198 18.10231506 -3.72462463 16.46205139 C-3.72075745 15.33863342 -3.71689026 14.21521545 -3.71290588 13.05775452 C-3.71677307 11.93046936 -3.72064026 10.8031842 -3.72462463 9.64173889 C-3.72333557 8.57117249 -3.72204651 7.50060608 -3.72071838 6.39759827 C-3.71959045 5.41009583 -3.71846252 4.42259338 -3.71730042 3.40516663 C-3.53227763 0.13794356 -3.29057443 0.15290604 0 0 Z " fill="#338381" transform="translate(373.58790588378906,77.87974548339844)"/>
<path d="M0 0 C1.17111328 -0.00257813 2.34222656 -0.00515625 3.54882812 -0.0078125 C5.39444336 0.00378906 5.39444336 0.00378906 7.27734375 0.015625 C9.08235352 0.00402344 9.08235352 0.00402344 10.92382812 -0.0078125 C20.97350061 0.014142 30.28896035 0.47201066 38.21484375 7.265625 C40.27734375 10.390625 40.27734375 10.390625 41.21484375 13.265625 C40.88484375 14.255625 40.55484375 15.245625 40.21484375 16.265625 C39.89773437 15.66234375 39.580625 15.0590625 39.25390625 14.4375 C38.78726563 13.63828125 38.320625 12.8390625 37.83984375 12.015625 C37.39898437 11.22671875 36.958125 10.4378125 36.50390625 9.625 C30.18303092 3.10996809 21.69362851 2.78499963 13.06005859 2.56347656 C11.5848877 2.54768555 10.1097168 2.53189453 8.58984375 2.515625 C3.84609375 2.433125 -0.89765625 2.350625 -5.78515625 2.265625 C-5.78515625 18.105625 -5.78515625 33.945625 -5.78515625 50.265625 C-0.64953125 50.141875 4.48609375 50.018125 9.77734375 49.890625 C11.38424072 49.85662598 12.9911377 49.82262695 14.64672852 49.78759766 C16.56956665 49.73418213 16.56956665 49.73418213 18.53125 49.6796875 C19.83521729 49.6482666 21.13918457 49.6168457 22.48266602 49.58447266 C26.3718279 49.25221352 29.5173846 48.45835376 33.21484375 47.265625 C32.21484375 50.265625 32.21484375 50.265625 30.12963867 51.43652344 C26.57803449 52.4467628 23.23811526 52.55273205 19.578125 52.53125 C18.8574736 52.53316345 18.1368222 52.5350769 17.39433289 52.53704834 C15.87901457 52.53840377 14.36368439 52.53475235 12.84838867 52.52636719 C10.52431422 52.51561098 8.20100445 52.52630781 5.87695312 52.5390625 C4.40234204 52.53774171 2.92773143 52.53518099 1.453125 52.53125 C0.75729813 52.53529846 0.06147125 52.53934692 -0.65544128 52.54351807 C-5.55519905 52.4955822 -5.55519905 52.4955822 -7.78515625 50.265625 C-8.03912354 48.21630859 -8.03912354 48.21630859 -8.04394531 45.6640625 C-8.05024963 44.70967285 -8.05655396 43.7552832 -8.06304932 42.77197266 C-8.05900085 41.73862793 -8.05495239 40.7052832 -8.05078125 39.640625 C-8.0526947 38.58278809 -8.05460815 37.52495117 -8.05657959 36.43505859 C-8.05794227 34.19563561 -8.05424007 31.95620474 -8.04589844 29.71679688 C-8.03520027 26.27976823 -8.04579113 22.8432623 -8.05859375 19.40625 C-8.05727217 17.23437384 -8.05470981 15.06249801 -8.05078125 12.890625 C-8.05685394 11.34060791 -8.05685394 11.34060791 -8.06304932 9.75927734 C-8.056745 8.8048877 -8.05044067 7.85049805 -8.04394531 6.8671875 C-8.04235413 6.02494629 -8.04076294 5.18270508 -8.03912354 4.31494141 C-7.44138746 -0.50831898 -4.00668152 0.00849967 0 0 Z " fill="#C8694A" transform="translate(183.78515625,227.734375)"/>
<path d="M0 0 C5.70076344 2.42765562 7.72906515 7.1573424 10.171875 12.62109375 C12.42941822 18.38764438 14.64406514 24.72329247 14 31 C12.4725734 32.92238436 11.47704424 33.8690933 9.08984375 34.52416992 C8.37957031 34.59224854 7.66929687 34.66032715 6.9375 34.73046875 C6.14585449 34.81232422 5.35420898 34.89417969 4.53857422 34.97851562 C1.12568183 35.25947695 -2.28686825 35.53996769 -5.70214844 35.79052734 C-8.19223126 35.98341792 -8.19223126 35.98341792 -11.3828125 36.61328125 C-14.44791806 37.04553973 -16.12852577 37.19247269 -19 36 C-21.75101315 32.67919772 -23.84367577 29.24643507 -25.953125 25.5 C-30.01429211 18.30031455 -36.26409213 14.5607598 -44 12 C-46.67621504 11.38873399 -49.2610263 11.12764149 -52 11 C-52.67417969 10.9484375 -53.34835937 10.896875 -54.04296875 10.84375 C-60.94226778 10.5421413 -67.36103017 12.2761253 -74 14 C-73.67 13.01 -73.34 12.02 -73 11 C-62.01780117 6.60712047 -50.10758251 7.60913306 -39 11 C-31.36549983 14.43835267 -23.50101231 21.54236462 -19.9921875 29.19921875 C-19.4375 31.125 -19.4375 31.125 -19 34 C-18.05253906 33.90912109 -18.05253906 33.90912109 -17.0859375 33.81640625 C-10.45064911 33.19494552 -3.81516442 32.70163567 2.8359375 32.28125 C5.62963269 32.03292154 8.26677118 31.61420872 11 31 C11.71663968 19.77264504 6.10348424 9.15522636 0 0 Z " fill="#BE6B52" transform="translate(415,219)"/>
<path d="M0 0 C4.62351701 4.17471408 7.64802221 8.8884189 10.875 14.1875 C14.49165001 20.07760848 18.22492339 25.82470664 22.21923828 31.46655273 C25.22238495 35.73905794 28.108478 40.08900334 31 44.4375 C31.61520508 45.36127441 32.23041016 46.28504883 32.86425781 47.23681641 C36.40172207 52.55992048 39.88451683 57.91105973 43.2890625 63.3203125 C45.52650483 66.82461715 47.82112335 70.28911414 50.125 73.75 C50.53331055 74.36472168 50.94162109 74.97944336 51.36230469 75.61279297 C52.56569733 77.41496343 53.77903619 79.20968991 55 81 C55.66116821 81.96981812 55.66116821 81.96981812 56.33569336 82.95922852 C59.36689983 87.45652538 59.36689983 87.45652538 64 90 C61.41113281 90.56860352 61.41113281 90.56860352 58 90 C55.32222113 87.30268092 53.42914704 84.11463989 51.421875 80.90234375 C50.50465668 79.49076744 50.50465668 79.49076744 49.56890869 78.05067444 C47.60927901 75.02531163 45.6793541 71.98223937 43.75 68.9375 C42.466797 66.94340319 41.18166042 64.95054922 39.89453125 62.95898438 C37.38995299 59.07932108 34.89514701 55.19365477 32.40771484 51.30297852 C28.41416312 45.06953507 24.31172189 38.91288643 20.18432617 32.76766968 C16.80595271 27.72526795 13.46519262 22.65780271 10.12792969 17.58813477 C9.27652367 16.29659231 8.42326572 15.00626918 7.56835938 13.71704102 C6.30946737 11.81808642 5.0564554 9.91537453 3.8046875 8.01171875 C3.42045624 7.43475754 3.03622498 6.85779633 2.64035034 6.26335144 C0 2.22804643 0 2.22804643 0 0 Z " fill="#33827D" transform="translate(176,69)"/>
<path d="M0 0 C9.61169112 0.19223382 20.56819174 5.57051577 27.484375 12.2421875 C38.15818498 24.62160629 41.40372236 39.83896867 40.24511719 55.84912109 C39.39689244 63.2922088 37.67373042 71.43031092 34 78 C33.34 78 32.68 78 32 78 C32.19335938 77.39414063 32.38671875 76.78828125 32.5859375 76.1640625 C33.42859509 73.45254055 34.22345229 70.73117512 35 68 C35.21269531 67.26652344 35.42539063 66.53304687 35.64453125 65.77734375 C39.24751289 51.08028914 38.3226417 33.81022931 30.6875 20.5625 C23.57549447 10.47638307 14.77936463 5.68804436 2.93359375 2.67578125 C1 2 1 2 0 0 Z " fill="#35847F" transform="translate(79,7)"/>
<path d="M0 0 C7.35974462 5.89917675 7.35974462 5.89917675 8.71875 8.6171875 C5.33238796 7.59101718 3.52533537 6.43666718 0.90625 3.9921875 C-14.61114524 -9.73733394 -34.72417689 -11.32032272 -54.47607422 -10.56445312 C-60.5653149 -10.17016287 -66.38509065 -8.94244175 -72.28125 -7.3828125 C-73.16683594 -7.17011719 -74.05242187 -6.95742187 -74.96484375 -6.73828125 C-76.74280756 -6.30996761 -78.51357621 -5.85178718 -80.28125 -5.3828125 C-80.28125 -6.0428125 -80.28125 -6.7028125 -80.28125 -7.3828125 C-78.51409069 -8.01812632 -76.74222982 -8.64036209 -74.96875 -9.2578125 C-73.98261719 -9.60585937 -72.99648438 -9.95390625 -71.98046875 -10.3125 C-48.08592383 -17.22602197 -20.33600588 -15.23978325 0 0 Z " fill="#BF694D" transform="translate(407.28125,209.3828125)"/>
<path d="M0 0 C3.09463361 2.7530503 5.19539299 6.14355988 7.4296875 9.58984375 C7.8564679 10.24186768 8.28324829 10.8938916 8.72296143 11.56567383 C10.11046401 13.68735962 11.49278795 15.81236461 12.875 17.9375 C13.83157179 19.40261888 14.78844168 20.86754319 15.74560547 22.33227539 C18.0857068 25.91525243 20.4216192 29.50093418 22.75561523 33.08789062 C24.46583121 35.71579165 26.17836687 38.34217928 27.890625 40.96875 C30.93397115 45.64138023 33.96908744 50.31929709 37 55 C37.47050781 55.72638672 37.94101563 56.45277344 38.42578125 57.20117188 C38.89371094 57.92369141 39.36164063 58.64621094 39.84375 59.390625 C40.30668457 60.10541016 40.76961914 60.82019531 41.24658203 61.55664062 C42.14984546 62.95297133 43.05190844 64.35007948 43.95263672 65.74804688 C46.33128543 69.43781027 48.73265206 73.11037011 51.1640625 76.765625 C51.6801709 77.54719971 52.1962793 78.32877441 52.72802734 79.1340332 C53.7244513 80.64209545 54.72715849 82.14602943 55.73681641 83.64526367 C56.88582205 85.39135908 57.95196313 87.19149734 59 89 C58.67 89.66 58.34 90.32 58 91 C51.89608331 83.05966138 46.69855075 74.72215643 41.52734375 66.16015625 C39.30716117 62.48797263 37.00976659 58.88661228 34.59375 55.33984375 C33.24626643 53.36155293 31.9165118 51.37373279 30.59375 49.37890625 C30.15683838 48.72043701 29.71992676 48.06196777 29.26977539 47.38354492 C28.4090386 46.08589391 27.54881353 44.78790327 26.68920898 43.48950195 C24.62608416 40.38720399 22.52631807 37.32549231 20.33984375 34.30859375 C18.56875571 31.84681244 17.0190921 29.38658808 15.625 26.6875 C13.31086161 22.40743212 10.60473277 18.52299724 7.78125 14.56640625 C0 3.35526316 0 3.35526316 0 0 Z " fill="#307E7A" transform="translate(175,16)"/>
<path d="M0 0 C0.66 0 1.32 0 2 0 C2.31453125 1.0621875 2.6290625 2.124375 2.953125 3.21875 C6.41918939 14.74730012 10.11480749 23.71934699 18 33 C18.51175781 33.6084375 19.02351563 34.216875 19.55078125 34.84375 C32.21406691 48.66966983 50.18642956 53.37596507 68 56 C67.01 56.99 67.01 56.99 66 58 C47.58177228 56.81934438 29.42356637 48.80396263 17 35 C16.47148437 34.47535156 15.94296875 33.95070312 15.3984375 33.41015625 C7.49712816 25.17817538 0 11.62395655 0 0 Z " fill="#33807F" transform="translate(295,106)"/>
<path d="M0 0 C0 3 0 3 -1.3203125 4.32421875 C-1.91585938 4.77410156 -2.51140625 5.22398438 -3.125 5.6875 C-11.11582651 12.27952992 -15.05402799 20.55074359 -19 30 C-19.32097656 30.76183594 -19.64195312 31.52367188 -19.97265625 32.30859375 C-26.32819743 49.20347457 -24.61097174 69.36561296 -23 87 C-23.99 87.495 -23.99 87.495 -25 88 C-26.14098217 80.86886144 -26.22017971 73.75572887 -26.24023438 66.54858398 C-26.24986716 64.46621605 -26.28093383 62.38486882 -26.3125 60.30273438 C-26.47586711 39.63373604 -21.03123753 19.95699977 -6.1875 4.875 C-2.37569061 1.1878453 -2.37569061 1.1878453 0 0 Z " fill="#3B8383" transform="translate(319,17)"/>
<path d="M0 0 C1.21042969 -0.01224609 2.42085937 -0.02449219 3.66796875 -0.03710938 C4.82683594 -0.03904297 5.98570313 -0.04097656 7.1796875 -0.04296875 C8.24687012 -0.04707764 9.31405273 -0.05118652 10.41357422 -0.05541992 C13.125 0.1875 13.125 0.1875 16.125 2.1875 C6.885 2.1875 -2.355 2.1875 -11.875 2.1875 C-11.875 17.6975 -11.875 33.2075 -11.875 49.1875 C-12.535 49.1875 -13.195 49.1875 -13.875 49.1875 C-13.9002689 42.36988106 -13.91783244 35.55227411 -13.92993164 28.73461914 C-13.93497333 26.41332549 -13.94180651 24.09203503 -13.95043945 21.77075195 C-13.96251225 18.44221205 -13.96822979 15.11371398 -13.97265625 11.78515625 C-13.97781754 10.74037613 -13.98297882 9.69559601 -13.98829651 8.61915588 C-13.98837204 7.65823532 -13.98844757 6.69731476 -13.98852539 5.70727539 C-13.990746 4.85678116 -13.99296661 4.00628693 -13.99525452 3.13002014 C-13.66196401 -2.2537571 -3.9918892 0.00211211 0 0 Z " fill="#3C8885" transform="translate(50.875,30.8125)"/>
<path d="M0 0 C0.495 0.99 0.495 0.99 1 2 C0.33355469 2.3403125 -0.33289063 2.680625 -1.01953125 3.03125 C-12.14456752 8.88161872 -25.76509787 16.2952936 -30 29 C-30.66 29.33 -31.32 29.66 -32 30 C-36.33768699 37.77065641 -38.98465155 45.71080531 -41.140625 54.296875 C-41.42421875 55.18890625 -41.7078125 56.0809375 -42 57 C-42.99 57.495 -42.99 57.495 -44 58 C-42.35816969 39.9398666 -32.22096569 22.67938088 -18.609375 10.9921875 C-12.99156801 6.70314324 -6.71569477 2.23856492 0 0 Z " fill="#BD6A50" transform="translate(325,203)"/>
<path d="M0 0 C0.33 0 0.66 0 1 0 C1 33.99 1 67.98 1 103 C-0.98 103.495 -0.98 103.495 -3 104 C-3.66 102.35 -4.32 100.7 -5 99 C-4.01 98.505 -4.01 98.505 -3 98 C-2.01 98.99 -1.02 99.98 0 101 C0 67.67 0 34.34 0 0 Z " fill="#3A918E" transform="translate(238,8)"/>
<path d="M0 0 C0.99 0.495 0.99 0.495 2 1 C-6.98821804 12.81045715 -19.40106343 19.00187181 -34 21 C-36.8943194 21.12770281 -39.78302983 21.11686386 -42.6796875 21.09765625 C-43.49245148 21.0962413 -44.30521545 21.09482635 -45.14260864 21.09336853 C-47.72011101 21.08780335 -50.2975242 21.0752574 -52.875 21.0625 C-54.63020707 21.0574805 -56.38541552 21.05291838 -58.140625 21.04882812 C-62.42711732 21.03784534 -66.71354357 21.02060492 -71 21 C-71 20.67 -71 20.34 -71 20 C-70.14994385 19.98541748 -69.2998877 19.97083496 -68.42407227 19.95581055 C-32.66458282 19.7811686 -32.66458282 19.7811686 -2 3 C-1.34 2.01 -0.68 1.02 0 0 Z " fill="#358581" transform="translate(109,87)"/>
<path d="M0 0 C0.66 0 1.32 0 2 0 C3.40112697 1.95372661 4.70648583 3.91443269 6 5.9375 C10.23707598 12.29397938 14.96136502 17.26701583 21 22 C21.71800781 22.56332031 22.43601562 23.12664062 23.17578125 23.70703125 C29.24821967 28.09206448 35.96624263 30.54307702 43 33 C43 33.66 43 34.32 43 35 C27.11031395 31.30881187 13.62737632 21.04930849 4 8 C2.48350424 5.37650734 1.23801045 2.77314341 0 0 Z " fill="#BC6C53" transform="translate(290,330)"/>
<path d="M0 0 C0.66 0 1.32 0 2 0 C-2.09489543 14.05433959 -13.76309328 24.53562598 -26.12744141 31.52612305 C-29.0287321 33.10163407 -31.73547665 34.41964029 -35 35 C-35 34.34 -35 33.68 -35 33 C-34.03320312 32.52691406 -33.06640625 32.05382812 -32.0703125 31.56640625 C-17.59159743 24.42927283 -17.59159743 24.42927283 -8 12 C-7.34 12 -6.68 12 -6 12 C-5.7525 11.319375 -5.505 10.63875 -5.25 9.9375 C-3.75802092 6.43134917 -1.93164489 3.28379632 0 0 Z " fill="#BD6B52" transform="translate(422,329)"/>
<path d="M0 0 C0.66 0 1.32 0 2 0 C3.0532987 1.6547562 4.04172311 3.35096219 5 5.0625 C10.38473478 13.70700191 17.30355816 18.21381069 27.171875 20.51171875 C31.76179898 21.304178 36.3516244 21.7392594 41 22 C39 24 39 24 36.56640625 24.1171875 C24.70135835 23.16057766 14.46730103 20.09890114 6.3125 11.0625 C0 3.56291482 0 3.56291482 0 0 Z " fill="#35847B" transform="translate(332,111)"/>
<path d="M0 0 C6.30842599 1.59813458 11.16217659 3.53896604 15 9 C19.2804566 17.62098978 18.74314256 29.00858829 16 38 C15.67 38.66 15.34 39.32 15 40 C14.34 40 13.68 40 13 40 C13.144375 39.34515625 13.28875 38.6903125 13.4375 38.015625 C15.34302267 28.64680522 17.3278393 17.60036981 12 9 C8.68500108 5.17650567 4.86928724 3.27528951 0 2 C0 1.34 0 0.68 0 0 Z " fill="#34817D" transform="translate(68,32)"/>
<path d="M0 0 C0 0.99 0 1.98 0 3 C-4.1098136 4.95839692 -7.44907582 5.25723187 -11.98046875 5.265625 C-12.63453201 5.26753845 -13.28859528 5.2694519 -13.96247864 5.27142334 C-15.33656197 5.27277777 -16.71065842 5.26913338 -18.0847168 5.26074219 C-20.19153281 5.2499794 -22.29750624 5.26068839 -24.40429688 5.2734375 C-25.74218938 5.27211679 -27.08008137 5.26955622 -28.41796875 5.265625 C-29.63250732 5.26336914 -30.8470459 5.26111328 -32.09838867 5.25878906 C-35 5 -35 5 -37 3 C-35.6385083 2.970271 -35.6385083 2.970271 -34.24951172 2.93994141 C-30.86106883 2.86154333 -27.47304498 2.7748408 -24.08496094 2.68261719 C-22.62247811 2.64448794 -21.15990662 2.60960786 -19.69726562 2.578125 C-17.58691868 2.53212289 -15.47717366 2.47419059 -13.3671875 2.4140625 C-12.09987793 2.3826416 -10.83256836 2.3512207 -9.52685547 2.31884766 C-6.05446961 2.00492436 -3.24410486 1.24437401 0 0 Z " fill="#C46143" transform="translate(216,275)"/>
<path d="M0 0 C-1.15082725 3.45248176 -1.7475427 3.68652725 -4.6875 5.5625 C-13.93074068 12.30890822 -17.3481334 23.53244854 -19.46484375 34.3828125 C-19.69133901 35.91553382 -19.85649251 37.45729448 -20 39 C-20.66 39 -21.32 39 -22 39 C-21.69668381 25.24047464 -16.93323483 13.72488725 -7.06640625 4.1171875 C-2.46090116 0 -2.46090116 0 0 0 Z " fill="#C0694D" transform="translate(340,232)"/>
<path d="M0 0 C0.66 0.33 1.32 0.66 2 1 C-6.59173191 9.32774015 -17.53442985 15.75125058 -29.82421875 16.07421875 C-30.54222656 16.04972656 -31.26023438 16.02523438 -32 16 C-31.67 15.34 -31.34 14.68 -31 14 C-28.56281809 13.36747185 -26.15007183 12.82386444 -23.6875 12.3125 C-14.79064677 10.29361788 -6.31030352 6.8973085 0 0 Z " fill="#BF684F" transform="translate(249,291)"/>
<path d="M0 0 C9.66219321 4.14093995 15.33859054 10.02242357 20.0625 19.3125 C20.52958374 20.22878174 20.52958374 20.22878174 21.00610352 21.16357422 C23.12980323 25.61059032 23.12980323 25.61059032 22 29 C18 22.5 18 22.5 18 18 C17.34 18 16.68 18 16 18 C15.2575 16.4840625 15.2575 16.4840625 14.5 14.9375 C11.2037422 9.14550416 6.03560282 4.76182718 0 2 C0 1.34 0 0.68 0 0 Z " fill="#BF684C" transform="translate(238,208)"/>
<path d="M0 0 C0 3 0 3 -1.3203125 4.32421875 C-1.91585938 4.77410156 -2.51140625 5.22398438 -3.125 5.6875 C-10.81301849 12.01425969 -14.81543675 20.09667394 -19 29 C-19.66 29 -20.32 29 -21 29 C-17.9835789 17.53759984 -9.61801763 6.7674287 0 0 Z " fill="#327E7D" transform="translate(319,17)"/>
<path d="M0 0 C1.38625787 4.15877361 0.08301647 5.6644966 -1.8125 9.5625 C-6.00485036 17.91246349 -11.83342334 25.93360069 -21 29 C-20.360625 28.38125 -19.72125 27.7625 -19.0625 27.125 C-18.03992445 26.08504356 -17.01940871 25.04306089 -16 24 C-14.96552734 22.97712891 -14.96552734 22.97712891 -13.91015625 21.93359375 C-7.50832632 15.29101124 -3.72846473 8.320111 0 0 Z " fill="#BB6B4F" transform="translate(108,331)"/>
<path d="M0 0 C1.22589844 0.46019531 1.22589844 0.46019531 2.4765625 0.9296875 C6.45229138 2.13739228 10.25891676 2.6709655 14.375 3.125 C15.47908203 3.25455078 15.47908203 3.25455078 16.60546875 3.38671875 C18.40299182 3.59681885 20.20141342 3.79920767 22 4 C22 4.66 22 5.32 22 6 C19.69 6 17.38 6 15 6 C14.34 7.32 13.68 8.64 13 10 C11.68 9.34 10.36 8.68 9 8 C9.33 7.34 9.66 6.68 10 6 C5.05 4.02 5.05 4.02 0 2 C0 1.34 0 0.68 0 0 Z " fill="#CA7256" transform="translate(342,333)"/>
<path d="M0 0 C0.66 0 1.32 0 2 0 C2.02904864 3.91665108 2.04681517 7.8332744 2.0625 11.75 C2.07087891 12.86117187 2.07925781 13.97234375 2.08789062 15.1171875 C2.09111328 16.18710937 2.09433594 17.25703125 2.09765625 18.359375 C2.10289307 19.34389648 2.10812988 20.32841797 2.11352539 21.34277344 C2.01159103 23.72869514 1.68303357 25.72164581 1 28 C0.34 28 -0.32 28 -1 28 C-1 27.01 -1 26.02 -1 25 C-1.66 25 -2.32 25 -3 25 C-2 23 -1 21 0 19 C0.08342159 17.55151418 0.10732861 16.09929131 0.09765625 14.6484375 C0.09443359 13.79765625 0.09121094 12.946875 0.08789062 12.0703125 C0.07951172 11.18085938 0.07113281 10.29140625 0.0625 9.375 C0.05573242 8.02921875 0.05573242 8.02921875 0.04882812 6.65625 C0.03702591 4.43743352 0.02056155 2.21874982 0 0 Z " fill="#C16F57" transform="translate(261,243)"/>
<path d="M0 0 C0 0.66 0 1.32 0 2 C-1.09699219 2.47050781 -2.19398438 2.94101563 -3.32421875 3.42578125 C-4.77872539 4.05450348 -6.23314806 4.68342 -7.6875 5.3125 C-8.40873047 5.62123047 -9.12996094 5.92996094 -9.87304688 6.24804688 C-13.03201311 7.61837469 -15.95956216 8.97495146 -18.89453125 10.79296875 C-19.58933594 11.19128906 -20.28414063 11.58960938 -21 12 C-21.66 11.67 -22.32 11.34 -23 11 C-5.85985748 0 -5.85985748 0 0 0 Z " fill="#35807A" transform="translate(343,5)"/>
<path d="M0 0 C0.66 0.66 1.32 1.32 2 2 C0.49759766 2.18175781 0.49759766 2.18175781 -1.03515625 2.3671875 C-2.3776403 2.53617151 -3.72008623 2.70545858 -5.0625 2.875 C-6.04766602 2.99294922 -6.04766602 2.99294922 -7.05273438 3.11328125 C-11.5335192 3.68717487 -15.68351175 4.66407776 -20 6 C-19.67 5.01 -19.34 4.02 -19 3 C-12.86334324 0.83412114 -6.51909657 -0.44448386 0 0 Z " fill="#C56C50" transform="translate(361,227)"/>
<path d="M0 0 C5.52155774 2.3211644 7.58729067 6.95266147 10.01953125 12.19921875 C12.16605801 17.50182596 12.16605801 17.50182596 11 21 C10.18595703 19.35451172 10.18595703 19.35451172 9.35546875 17.67578125 C8.6329203 16.22130061 7.91025804 14.7668765 7.1875 13.3125 C6.83107422 12.59126953 6.47464844 11.87003906 6.10742188 11.12695312 C4.21193781 7.31859523 2.25792874 3.61126143 0 0 Z " fill="#BD6C52" transform="translate(415,219)"/>
<path d="M0 0 C1.485 0.99 1.485 0.99 3 2 C4.32 2 5.64 2 7 2 C7 2.66 7 3.32 7 4 C7.99 4 8.98 4 10 4 C9 6 9 6 7.25 6.9375 C5 7 5 7 2.25 4.6875 C0 2 0 2 0 0 Z M9 1 C9.99 1 10.98 1 12 1 C11.67 1.99 11.34 2.98 11 4 C10.34 3.67 9.68 3.34 9 3 C9 2.34 9 1.68 9 1 Z " fill="#449A98" transform="translate(172,63)"/>
<path d="M0 0 C0.66 0.33 1.32 0.66 2 1 C-2.21028351 6.2724523 -5.91410189 10.01915194 -12 13 C-12 12.34 -12 11.68 -12 11 C-10.42330631 9.62984736 -8.78756162 8.32708298 -7.125 7.0625 C-4.11812455 4.77093538 -2.10945975 3.16418962 0 0 Z " fill="#2F7D78" transform="translate(109,87)"/>
<path d="M0 0 C0.99 0.33 1.98 0.66 3 1 C2.67 2.32 2.34 3.64 2 5 C-0.64 5 -3.28 5 -6 5 C-6 4.34 -6 3.68 -6 3 C-4.02 2.67 -2.04 2.34 0 2 C0 1.34 0 0.68 0 0 Z " fill="#D67E5C" transform="translate(384,360)"/>
<path d="M0 0 C4.12751449 0.60698743 7.3321148 2.03810791 11 4 C11 4.66 11 5.32 11 6 C6.14922412 4.88059018 3.222107 3.8665284 0 0 Z " fill="#C26E57" transform="translate(21,357)"/>
<path d="M0 0 C-1.22053859 3.66161578 -2.36782304 4.16270474 -5.5625 6.1875 C-6.38878906 6.71730469 -7.21507812 7.24710938 -8.06640625 7.79296875 C-8.70449219 8.19128906 -9.34257812 8.58960938 -10 9 C-8.22001491 4.99503355 -4.82420328 0 0 0 Z " fill="#B86C56" transform="translate(340,232)"/>
<path d="M0 0 C4.29 0 8.58 0 13 0 C13 0.33 13 0.66 13 1 C11.9275 1.144375 10.855 1.28875 9.75 1.4375 C7.08337051 1.83749442 4.58600271 2.27591924 2 3 C2 2.34 2 1.68 2 1 C1.34 0.67 0.68 0.34 0 0 Z " fill="#45A7AC" transform="translate(362,3)"/>
<path d="M0 0 C0.66 0 1.32 0 2 0 C1.25 2.875 1.25 2.875 0 6 C-1.98 6.99 -1.98 6.99 -4 8 C-2.68 5.36 -1.36 2.72 0 0 Z " fill="#C8644D" transform="translate(422,329)"/>
<path d="M0 0 C-2.55068845 2.35448165 -3.71017358 2.98327924 -7.25 3.1875 C-8.1575 3.125625 -9.065 3.06375 -10 3 C-6.70286397 -0.29713603 -4.54994912 -0.09891194 0 0 Z " fill="#DD7A59" transform="translate(375,226)"/>
<path d="M0 0 C0.33 0 0.66 0 1 0 C1 2.97 1 5.94 1 9 C0.67 9 0.34 9 0 9 C0 6.03 0 3.06 0 0 Z " fill="#A05E5E" transform="translate(179,322)"/>
<path d="M0 0 C0.33 0.66 0.66 1.32 1 2 C1.99 2.33 2.98 2.66 4 3 C2.68 3 1.36 3 0 3 C0 2.01 0 1.02 0 0 Z " fill="#526666" transform="translate(40,76)"/>
<path d="M0 0 C0.33 0 0.66 0 1 0 C1 1.65 1 3.3 1 5 C0.67 5 0.34 5 0 5 C0 3.35 0 1.7 0 0 Z " fill="#E51919" transform="translate(179,247)"/>
<path d="M0 0 C0.33 0 0.66 0 1 0 C1 1.65 1 3.3 1 5 C0.67 5 0.34 5 0 5 C0 3.35 0 1.7 0 0 Z " fill="#B21919" transform="translate(179,241)"/>
<path d="M0 0 C1 4 1 4 1 4 Z " fill="#FF0000" transform="translate(179,266)"/>
<path d="" fill="#D42A2A" transform="translate(0,0)"/>
<path d="" fill="#808080" transform="translate(0,0)"/>
<path d="" fill="#2A2A2A" transform="translate(0,0)"/>
<path d="M0 0 C2 1 2 1 2 1 Z " fill="#CC3333" transform="translate(371,369)"/>
<path d="M0 0 C2 1 2 1 2 1 Z " fill="#808060" transform="translate(344,369)"/>
<path d="" fill="#BF4020" transform="translate(0,0)"/>
<path d="" fill="#6A6A6A" transform="translate(0,0)"/>
<path d="" fill="#FFFFFF" transform="translate(0,0)"/>
<path d="" fill="#FFFFFF" transform="translate(0,0)"/>
<path d="" fill="#FFFFFF" transform="translate(0,0)"/>
<path d="" fill="#FFFFFF" transform="translate(0,0)"/>
<path d="" fill="#FFFFFF" transform="translate(0,0)"/>
<path d="" fill="#555555" transform="translate(0,0)"/>
<path d="" fill="#FF0000" transform="translate(0,0)"/>
<path d="" fill="#FFFFFF" transform="translate(0,0)"/>
<path d="" fill="#FFFFFF" transform="translate(0,0)"/>
<path d="" fill="#8E7171" transform="translate(0,0)"/>
<path d="" fill="#996666" transform="translate(0,0)"/>
<path d="" fill="#FFFFFF" transform="translate(0,0)"/>
<path d="" fill="#FFFFFF" transform="translate(0,0)"/>
<path d="" fill="#8B7474" transform="translate(0,0)"/>
<path d="" fill="#FFFFFF" transform="translate(0,0)"/>
<path d="" fill="#FFFFFF" transform="translate(0,0)"/>
<path d="" fill="#808080" transform="translate(0,0)"/>
<path d="" fill="#808080" transform="translate(0,0)"/>
<path d="" fill="#FFFFFF" transform="translate(0,0)"/>
<path d="" fill="#9F8080" transform="translate(0,0)"/>
<path d="" fill="#FFFFFF" transform="translate(0,0)"/>
<path d="" fill="#FFFFFF" transform="translate(0,0)"/>
<path d="" fill="#FFFFFF" transform="translate(0,0)"/>
<path d="" fill="#FFFFFF" transform="translate(0,0)"/>
<path d="" fill="#FFFFFF" transform="translate(0,0)"/>
<path d="" fill="#FFFFFF" transform="translate(0,0)"/>
<path d="" fill="#FFFFFF" transform="translate(0,0)"/>
<path d="" fill="#FFFFFF" transform="translate(0,0)"/>
<path d="" fill="#FFFFFF" transform="translate(0,0)"/>
<path d="" fill="#000000" transform="translate(0,0)"/>
<path d="" fill="#808080" transform="translate(0,0)"/>
<path d="" fill="#FFFFFF" transform="translate(0,0)"/>
<path d="" fill="#FFFFFF" transform="translate(0,0)"/>
<path d="" fill="#FFFFFF" transform="translate(0,0)"/>
<path d="" fill="#00FFFF" transform="translate(0,0)"/>
<path d="" fill="#808080" transform="translate(0,0)"/>
<path d="" fill="#808080" transform="translate(0,0)"/>
<path d="" fill="#FFFFFF" transform="translate(0,0)"/>
<path d="" fill="#808080" transform="translate(0,0)"/>
<path d="" fill="#808080" transform="translate(0,0)"/>
<path d="" fill="#FFFFFF" transform="translate(0,0)"/>
<path d="" fill="#FFFFFF" transform="translate(0,0)"/>
<path d="" fill="#000000" transform="translate(0,0)"/>
<path d="" fill="#FFFFFF" transform="translate(0,0)"/>
<path d="" fill="#000000" transform="translate(0,0)"/>
<path d="" fill="#FFFFFF" transform="translate(0,0)"/>
<path d="" fill="#FFFFFF" transform="translate(0,0)"/>
<path d="" fill="#000000" transform="translate(0,0)"/>
<path d="" fill="#748B8B" transform="translate(0,0)"/>
<path d="" fill="#FFFFFF" transform="translate(0,0)"/>
<path d="" fill="#FFFFFF" transform="translate(0,0)"/>
<path d="" fill="#FFFFFF" transform="translate(0,0)"/>
<path d="" fill="#FFFFFF" transform="translate(0,0)"/>
</svg>
